<svg width="41" height="36" viewBox="0 0 41 36" fill="none" xmlns="http://www.w3.org/2000/svg">
<g clip-path="url(#clip0_4179_8846)">
<path fill-rule="evenodd" clip-rule="evenodd" d="M30.1046 4.60615C29.8437 4.25962 29.3753 3.63762 29.0267 3.5813C28.1623 5.37838 27.9172 7.53144 28.5748 9.43253C28.8908 10.3463 29.3859 11.1103 29.8932 11.8933C30.0413 12.1218 30.1903 12.3518 30.3363 12.5877C29.8698 14.8677 28.5461 16.9206 27.0759 18.6905C26.6839 19.1627 26.2697 19.6589 25.813 20.0688C26.6068 18.6329 26.8103 16.9984 26.3558 15.4121C25.9968 14.1596 25.1927 13.0483 24.0343 12.4233C22.9942 11.862 21.6962 11.7694 20.5726 12.1196C19.2848 12.5209 18.2706 13.4346 17.6505 14.6226C17.4499 15.0068 17.3001 15.408 17.1824 15.8244C16.5757 14.5789 15.6998 13.5545 14.3515 13.096C13.2919 12.7356 12.0939 12.778 11.0854 13.2756C10.1412 13.7525 9.42528 14.5851 9.09547 15.5902C8.63958 16.9449 8.84932 18.4009 9.4838 19.662C10.4109 21.5046 12.2096 23.0908 13.8609 24.5471C14.299 24.9334 14.7267 25.3106 15.125 25.6811L16.8571 27.2965C16.9398 27.3737 17.0228 27.4543 17.1065 27.5356C17.3578 27.7797 17.6161 28.0307 17.8993 28.2184C18.0245 28.1874 18.1286 28.0919 18.2254 28.0032C18.2384 27.9912 18.2513 27.9793 18.2642 27.9678C19.1462 27.1726 19.9977 26.3376 20.8481 25.5038C21.2336 25.1257 21.619 24.7479 22.0068 24.3741C22.4762 23.9215 22.9516 23.4745 23.427 23.0275C24.0977 22.3968 24.7686 21.766 25.4232 21.1192C25.9192 20.6291 26.4003 20.124 26.866 19.6045C27.7103 18.6649 28.4694 17.6521 29.1347 16.578C29.3646 16.1987 29.5574 15.8055 29.7503 15.4123C29.893 15.1211 30.0358 14.8299 30.1937 14.5444C30.685 13.6541 31.5354 12.9229 32.3489 12.3368C34.6874 12.7966 36.9249 12.9823 38.9996 11.5828C39.4258 11.2952 40.6831 10.3354 40.8378 9.83812C40.7932 9.72143 40.7337 9.69222 40.6214 9.63897C40.3801 9.52432 40.1085 9.45072 39.8469 9.37978C39.8053 9.36852 39.764 9.35732 39.7231 9.34604C38.2897 8.95034 36.7655 8.8854 35.3621 9.43493C34.4595 9.78839 33.5064 10.3776 32.8527 11.1008C32.7427 11.2223 32.6413 11.3537 32.5399 11.4851C32.4026 11.6629 32.2653 11.8408 32.1064 11.9949C31.8477 12.2459 31.5695 12.4813 31.291 12.717C31.0487 12.9221 30.8061 13.1274 30.5758 13.3433C30.6474 12.7972 30.8134 12.4396 30.9925 12.0537C31.0964 11.83 31.2046 11.5968 31.3015 11.3118C32.106 8.94614 31.714 6.69557 30.1911 4.72025C30.1658 4.68748 30.1368 4.64887 30.1046 4.60615ZM21.7277 12.4568C21.8292 12.4494 21.9303 12.4496 22.0318 12.451C23.0694 12.4694 24.0551 12.9049 24.7675 13.6593C25.6667 14.5983 26.0976 15.9453 26.0608 17.2322C26.0308 18.2656 25.7001 19.2515 25.1646 20.1305C24.3685 21.4361 23.1859 22.5316 22.0463 23.5872C21.7814 23.8325 21.5187 24.0759 21.2637 24.3192L17.912 27.5368C16.8462 26.5074 15.742 25.5105 14.6402 24.5158L14.6364 24.5124C14.3427 24.2472 14.0484 23.9815 13.7558 23.7161L13.7467 23.7081C12.2055 22.357 10.3886 20.764 9.67998 18.7926C9.27828 17.6749 9.26157 16.4345 9.77641 15.3498C10.1668 14.5155 10.8793 13.8754 11.7506 13.5765C12.6921 13.2536 13.7205 13.3616 14.6069 13.7983C15.5718 14.2738 16.3269 15.146 16.7253 16.1393C16.7965 16.3168 16.8517 16.5003 16.9068 16.6838C16.9436 16.8065 16.9805 16.9292 17.0222 17.0501C17.127 17.1345 17.1562 17.1421 17.2896 17.1661C17.3765 17.1093 17.5805 16.4677 17.7562 15.9155C17.862 15.5831 17.9575 15.2829 18.011 15.1619C18.2015 14.7245 18.4542 14.3169 18.7611 13.9517C19.5373 13.0306 20.5402 12.5606 21.7277 12.4568ZM24.657 14.2234C23.1872 14.2425 21.7174 14.2468 20.2476 14.2361C19.9197 15.1284 19.5075 16.005 19.0986 16.8744C18.9478 17.1951 18.7971 17.5154 18.6516 17.8346C17.6109 20.1185 16.5582 22.3966 15.4936 24.6692C15.7176 24.865 15.9386 25.0638 16.1568 25.266C16.752 23.8542 17.4076 22.4675 18.0632 21.0809C18.7368 19.6562 19.4105 18.2315 20.0184 16.7796L20.0887 16.6679C20.1531 16.7345 20.1556 16.8358 20.1579 16.9296C20.1582 16.9423 20.1585 16.955 20.159 16.9674C20.18 17.5255 20.1727 18.0891 20.1654 18.6513C20.1618 18.9356 20.1581 19.2196 20.1581 19.5023L20.1671 24.6868C20.4092 24.456 20.6505 24.2219 20.8923 23.9874C21.5376 23.3613 22.1865 22.7318 22.8646 22.1516C22.8822 20.9782 22.8861 19.8048 22.8762 18.6315C22.8754 18.4519 22.8714 18.2691 22.8674 18.0847C22.854 17.4751 22.8402 16.8482 22.9409 16.2623C23.0069 15.877 23.1247 15.4741 23.41 15.193C23.8165 14.792 24.415 14.7109 24.9599 14.6838C24.9285 14.6359 24.8973 14.5878 24.8661 14.5396C24.7974 14.4335 24.7286 14.3272 24.657 14.2234ZM30.8273 6.52817C30.5476 5.88808 29.7572 4.55019 29.1716 4.19206C28.4472 6.36385 28.2994 8.13749 29.3417 10.2397C29.6429 10.847 30.0121 11.4121 30.3835 11.9776C30.4701 10.1689 30.2803 8.54249 29.8258 6.79399L29.905 6.71354C30.131 6.8423 30.33 7.57599 30.4169 7.89657C30.4235 7.92091 30.4297 7.94361 30.4349 7.96271C30.7597 9.13944 30.8282 10.286 30.8218 11.4977C31.4554 9.86984 31.5342 8.14696 30.8273 6.52817ZM37.0205 9.45554C38.1531 9.37882 39.2421 9.58389 40.3255 9.89987C39.8658 10.4218 39.3085 10.8986 38.7315 11.2858C36.9468 12.4832 34.9428 12.4222 32.9153 12.0209C33.3835 11.7635 33.889 11.5612 34.3855 11.3647C35.1275 11.0867 35.8964 10.8833 36.6675 10.705C36.7857 10.6777 36.9074 10.6583 37.0293 10.6388C37.2042 10.6109 37.3794 10.583 37.5453 10.5315C37.6241 10.507 37.6845 10.4804 37.7419 10.4187C37.7759 10.3822 37.7754 10.3789 37.7709 10.3483C37.7696 10.3396 37.768 10.3287 37.7667 10.3142C37.7645 10.3129 37.7623 10.3115 37.7601 10.31C37.7584 10.3089 37.7567 10.3077 37.755 10.3066C37.7478 10.3017 37.7406 10.2968 37.7325 10.2933C37.6229 10.2459 37.418 10.272 37.2592 10.2922C37.215 10.2978 37.1744 10.303 37.1404 10.306C35.7019 10.4334 34.4116 10.9046 33.0879 11.4455C34.1662 10.3323 35.4749 9.62801 37.0205 9.45554Z" fill="#B09A0C"/>
<path fill-rule="evenodd" clip-rule="evenodd" d="M24.6575 14.2234C23.1877 14.2425 21.7179 14.2467 20.2481 14.2361C19.9202 15.1283 19.5081 16.0047 19.0992 16.8741C18.9483 17.195 18.7977 17.5152 18.6521 17.8346C17.6114 20.1184 16.5587 22.3966 15.4941 24.6692C15.7181 24.865 15.9391 25.0637 16.1573 25.2659C16.7525 23.8542 17.4081 22.4676 18.0637 21.081C18.7373 19.6563 19.4109 18.2315 20.0189 16.7796L20.0892 16.6679C20.1536 16.7344 20.1561 16.8355 20.1584 16.9293C20.1587 16.9422 20.159 16.9549 20.1595 16.9673C20.1805 17.5255 20.1732 18.089 20.1659 18.6512C20.1623 18.9355 20.1586 19.2195 20.1586 19.5023L20.1676 24.6867C20.4097 24.4559 20.651 24.2219 20.8928 23.9873C21.5381 23.3613 22.187 22.7318 22.8651 22.1516C22.8827 20.9782 22.8866 19.8048 22.8767 18.6315C22.8759 18.4519 22.8719 18.269 22.8679 18.0846C22.8545 17.4751 22.8408 16.8482 22.9414 16.2623C23.0074 15.877 23.1252 15.474 23.4105 15.193C23.817 14.792 24.4155 14.7109 24.9604 14.6837C24.929 14.6359 24.8978 14.5877 24.8666 14.5396C24.7979 14.4335 24.7291 14.3271 24.6575 14.2234Z" fill="white"/>
<path d="M20.2472 14.2361C21.717 14.2467 23.1867 14.2425 24.6565 14.2234C24.7606 14.3742 24.8587 14.5303 24.9594 14.6837C24.4145 14.7109 23.816 14.792 23.4095 15.193C23.1242 15.474 23.0064 15.877 22.9404 16.2623C22.8093 17.0254 22.8723 17.8581 22.8757 18.6315C22.8856 19.8048 22.8817 20.9782 22.8642 22.1516C21.932 22.9492 21.0551 23.8398 20.1666 24.6867L20.1576 19.5023C20.1576 18.6604 20.1902 17.8077 20.1585 16.9673C20.1546 16.8638 20.1615 16.7435 20.0882 16.6679L20.018 16.7796C18.8183 19.6444 17.3632 22.4034 16.1563 25.2659C15.9382 25.0637 15.7171 24.865 15.4932 24.6692C16.5578 22.3966 17.6105 20.1184 18.6511 17.8346C19.1913 16.6497 19.7982 15.4577 20.2472 14.2361Z" fill="black"/>
<path d="M30.7832 14.231C31.5102 14.259 36.446 14.1841 36.6217 14.2725C36.6328 14.3304 36.6487 14.3949 36.6495 14.4546C36.6508 14.6217 36.6367 14.6595 36.4696 14.6765C35.298 14.7961 34.5183 15.0083 33.587 15.7888C32.6201 16.5989 31.7419 17.559 30.8543 18.454L26.8999 22.4129C28.8289 24.5711 30.704 26.7738 32.6158 28.9466C33.6585 30.132 35.0302 31.947 36.2948 32.7824C36.7073 33.0553 37.1919 33.302 37.6742 33.422C38.0362 33.5119 38.552 33.5175 38.8728 33.7038C38.8737 33.8311 38.902 33.9322 38.8244 34.0367C38.1364 34.0932 37.4185 34.044 36.7266 34.0341C35.54 34.0089 34.3525 34.0033 33.1655 34.017C32.7435 34.0221 30.8355 34.1258 30.5742 34.0457L30.5416 33.894C30.6697 33.5098 31.3264 33.589 31.6447 33.3586C31.8045 33.2429 31.8966 33.0891 31.9146 32.8916C31.9411 32.6055 31.8319 32.3304 31.6914 32.0875C31.332 31.4642 30.7858 30.9095 30.3188 30.3616L28.0964 27.7583C27.0867 26.5875 26.0877 25.4022 25.045 24.2605C24.327 24.9845 23.585 25.681 22.8722 26.4119L22.8744 29.7708C22.8752 30.4275 22.8401 31.1155 22.9116 31.7684C23.0667 33.1778 23.6707 33.4986 25.0026 33.5997C25.2322 33.6173 25.4605 33.6087 25.6486 33.7574C25.6966 33.8688 25.7034 33.8928 25.691 34.0127C25.5732 34.0705 25.4262 34.0731 25.2973 34.0748C23.6613 34.0971 22.0189 34.0483 20.3816 34.0564C19.6812 34.0603 18.1189 34.1511 17.4908 34.0487C17.4791 33.9934 17.4632 33.9335 17.462 33.8765C17.4613 33.8469 17.4667 33.6961 17.4826 33.6747C17.5041 33.6456 19.1247 33.6199 19.6503 33.0823C19.8812 32.8462 20.0003 32.5022 20.0624 32.1839C20.2111 31.4223 20.1537 30.5955 20.1503 29.8231C20.1434 28.8382 20.1425 27.8534 20.1485 26.8685C21.013 25.9753 21.9512 25.1353 22.8581 24.2845L22.8731 25.3019C23.618 24.5171 24.4273 23.7782 25.1975 23.0161L29.184 19.0172C29.9603 18.2364 30.8248 17.466 31.526 16.6196C31.7119 16.3948 31.9433 16.0987 31.9831 15.8048C32.0157 15.5623 31.9878 15.32 31.8276 15.1265C31.5492 14.7902 31.0749 14.7433 30.6718 14.6953L30.7832 14.231Z" fill="black"/>
<path d="M0.331055 14.244C2.10791 14.2555 3.88481 14.2526 5.66163 14.2354C6.37485 15.9469 7.18364 17.6246 7.94753 19.3143L12.9192 30.2875C13.5511 28.8939 14.2018 27.5089 14.8712 26.133C15.0787 26.3116 15.2747 26.507 15.4742 26.6946C14.6897 28.3777 13.9161 30.066 13.1534 31.759C12.8529 32.4174 12.4693 33.4562 12.0801 34.0401C11.9726 34.0598 11.871 34.0898 11.7636 34.0568C11.1836 33.0373 10.6637 31.6934 10.167 30.604L7.04373 23.7426C5.99106 21.5822 5.00003 19.3798 4.01071 17.1897C4.07861 20.492 4.01881 23.8103 4.01962 27.114C4.01992 28.4968 3.8915 30.8379 4.19004 32.1107C4.43392 33.1508 5.1288 33.5226 6.13028 33.5963C6.38264 33.6152 6.68268 33.5989 6.90326 33.7377C6.96589 33.8499 6.96979 33.8718 6.9676 34.0007C6.95616 34.0076 6.9455 34.0161 6.93333 34.0221C6.82495 34.0748 6.67656 34.0748 6.55738 34.077C5.22219 34.1022 3.87877 34.0705 2.54272 34.0714C2.04918 34.0714 0.806605 34.1493 0.384388 34.041C0.34502 33.9514 0.338638 33.915 0.358686 33.8191C0.586116 33.5166 1.76529 33.5783 2.24637 33.2832C2.70611 33.0008 2.94403 32.5498 3.06835 32.0395C3.33451 30.9472 3.21846 29.6731 3.21542 28.5499L3.20582 23.8947L3.20299 19.2379C3.20231 18.3758 3.24485 17.4906 3.17541 16.6326C3.14521 16.2595 3.06655 15.9204 2.86431 15.5984C2.27515 14.6604 1.31073 14.8446 0.395569 14.6339C0.314133 14.5191 0.335638 14.3827 0.331055 14.244Z" fill="black"/>
</g>
<defs>
<clipPath id="clip0_4179_8846">
<rect width="41" height="32" fill="white" transform="translate(0 3)"/>
</clipPath>
</defs>
</svg>
