<svg width="300" height="21" viewBox="0 0 300 21" fill="none" xmlns="http://www.w3.org/2000/svg">
<g clip-path="url(#clip0_8242_273)">
<path d="M130.97 9.24257H17.6751C17.2677 9.24257 16.9374 9.57288 16.9374 9.97953C16.9374 10.3862 17.2677 10.7165 17.6751 10.7165H130.97C131.377 10.7165 131.707 10.3862 131.707 9.97953C131.707 9.57288 131.377 9.24257 130.97 9.24257Z" fill="#1D1D1B"/>
<path d="M12.5409 2.90695C17.0186 2.90695 21.1962 4.10725 23.3715 5.35063C26.1659 6.947 38.6595 14.6409 38.7857 14.7187C39.085 14.9039 39.178 15.2962 38.9936 15.5955C38.8099 15.8948 38.4184 15.9893 38.1175 15.8034C37.9921 15.7263 25.5159 8.04299 22.7389 6.45645C19.8145 4.78525 13.0065 3.19644 7.02919 4.90619C3.60215 5.88502 2.22498 7.71268 1.6732 9.07398C1.02241 10.6794 1.17207 12.5736 2.07305 14.1382C3.85838 17.238 8.5273 18.501 13.9687 17.3551C17.2627 16.6613 19.1267 14.5479 19.2091 12.9115C19.271 11.6688 18.3527 10.6817 16.6233 10.1329L16.4608 10.083L16.7918 8.85176L16.6089 9.46249L16.8251 8.86234L17.011 8.91903C19.3081 9.64843 20.5734 11.1269 20.4812 12.9749C20.3549 15.4995 17.7268 17.8661 14.231 18.6015C8.24083 19.8615 3.0345 18.3612 0.9695 14.7739C-0.126491 12.8714 -0.304117 10.5615 0.492555 8.59476C1.15091 6.97119 2.75785 4.80113 6.67999 3.68095C8.59608 3.13295 10.5968 2.90695 12.5409 2.90695Z" fill="#1D1D1B"/>
<path d="M26.6675 6.71576C26.793 6.79362 39.2873 14.4882 42.0809 16.0846C45.2019 17.8677 52.4422 19.5623 58.7733 17.7543C62.6946 16.6341 64.3023 14.4633 64.9607 12.8397C65.7574 10.873 65.5797 8.56232 64.483 6.66059C62.9048 3.91683 59.4868 2.39303 55.2857 2.39303C53.9947 2.39303 52.6304 2.53664 51.2223 2.83369C50.381 3.0098 49.5805 3.28116 48.8413 3.63868C46.3417 4.85031 44.8232 6.92287 44.9736 8.91984C44.9819 9.03397 45.0008 9.16171 45.0258 9.29474C45.3704 9.03549 45.7801 8.83972 46.248 8.72181C46.2041 7.29853 47.449 5.72937 49.3969 4.78531C50.0416 4.47239 50.7446 4.2358 51.4845 4.0801C56.9267 2.93649 61.5949 4.1965 63.3794 7.29626C64.2812 8.86164 64.4301 10.7551 63.78 12.3613C63.2283 13.7225 61.8511 15.5502 58.4241 16.529C52.4468 18.238 45.6388 16.65 42.7136 14.9788C39.9366 13.3922 27.4612 5.70897 27.3357 5.63111C27.0379 5.44744 26.6449 5.54041 26.4589 5.83897C26.2752 6.13829 26.3675 6.53134 26.6675 6.71576Z" fill="#1D1D1B"/>
<path d="M63.0378 6.71576C63.1633 6.79362 75.6576 14.4882 78.4512 16.0846C81.5721 17.8677 88.8125 19.5623 95.1435 17.7543C99.0649 16.6341 100.673 14.4633 101.331 12.8397C102.128 10.873 101.95 8.56232 100.853 6.66059C99.275 3.91683 95.8571 2.39303 91.6553 2.39303C90.365 2.39303 89.0007 2.53664 87.5925 2.83369C86.7513 3.0098 85.9508 3.28116 85.2116 3.63868C82.712 4.85031 81.1935 6.92287 81.3439 8.91984C81.3522 9.03397 81.3711 9.16171 81.396 9.29474C81.7407 9.03549 82.1504 8.83972 82.6182 8.72181C82.5744 7.29853 83.8193 5.72937 85.7671 4.78531C86.4119 4.47239 87.1148 4.2358 87.8548 4.0801C93.297 2.93649 97.9651 4.1965 99.7497 7.29626C100.651 8.86164 100.8 10.7551 100.15 12.3613C99.5985 13.7225 98.2214 15.5502 94.7943 16.529C88.817 18.238 82.009 16.65 79.0839 14.9788C76.3069 13.3922 63.8315 5.70897 63.706 5.63111C63.4082 5.44744 63.0151 5.54041 62.8292 5.83897C62.6455 6.13829 62.7377 6.53134 63.0378 6.71576Z" fill="#1D1D1B"/>
<path d="M18.9051 10.2338L16.555 7.88373L14.205 10.2338L16.555 12.5839L18.9051 10.2338Z" fill="#1D1D1B"/>
<path d="M14.7504 10.2338L12.4004 7.88373L10.0503 10.2338L12.4004 12.5839L14.7504 10.2338Z" fill="#1D1D1B"/>
<path d="M168.499 9.24257H281.794C282.201 9.24257 282.531 9.57288 282.531 9.97953C282.531 10.3862 282.201 10.7165 281.794 10.7165H168.499C168.092 10.7165 167.762 10.3862 167.762 9.97953C167.762 9.57288 168.092 9.24257 168.499 9.24257Z" fill="#1D1D1B"/>
<path d="M286.928 2.90695C282.451 2.90695 278.273 4.10725 276.098 5.35063C273.303 6.947 260.81 14.6409 260.683 14.7187C260.384 14.9039 260.291 15.2962 260.476 15.5955C260.659 15.8948 261.051 15.9893 261.352 15.8034C261.477 15.7263 273.953 8.04299 276.73 6.45645C279.655 4.78525 286.463 3.19644 292.44 4.90619C295.867 5.88502 297.244 7.71268 297.796 9.07398C298.447 10.6794 298.297 12.5736 297.396 14.1382C295.611 17.238 290.942 18.501 285.5 17.3551C282.206 16.6613 280.342 14.5479 280.26 12.9115C280.198 11.6688 281.116 10.6817 282.846 10.1329L283.008 10.083L282.677 8.85176L282.86 9.46249L282.644 8.86234L282.458 8.91903C280.161 9.64843 278.896 11.1269 278.988 12.9749C279.114 15.4995 281.742 17.8661 285.238 18.6015C291.228 19.8615 296.435 18.3612 298.5 14.7739C299.596 12.8714 299.773 10.5615 298.977 8.59476C298.318 6.97119 296.711 4.80113 292.789 3.68095C290.873 3.13295 288.872 2.90695 286.928 2.90695Z" fill="#1D1D1B"/>
<path d="M272.801 6.71576C272.676 6.79362 260.182 14.4882 257.388 16.0846C254.267 17.8677 247.027 19.5623 240.696 17.7543C236.774 16.6341 235.167 14.4633 234.508 12.8397C233.711 10.873 233.889 8.56232 234.986 6.66059C236.564 3.91683 239.982 2.39303 244.183 2.39303C245.474 2.39303 246.838 2.53664 248.247 2.83369C249.088 3.0098 249.888 3.28116 250.628 3.63868C253.127 4.85031 254.646 6.92287 254.495 8.91984C254.487 9.03397 254.468 9.16171 254.443 9.29474C254.098 9.03549 253.689 8.83972 253.221 8.72181C253.265 7.29853 252.02 5.72937 250.072 4.78531C249.427 4.47239 248.724 4.2358 247.984 4.0801C242.542 2.93649 237.874 4.1965 236.089 7.29626C235.188 8.86164 235.038 10.7551 235.689 12.3613C236.241 13.7225 237.618 15.5502 241.045 16.529C247.022 18.238 253.83 16.65 256.755 14.9788C259.532 13.3922 272.008 5.70897 272.133 5.63111C272.431 5.44744 272.824 5.54041 273.01 5.83897C273.194 6.13829 273.101 6.53134 272.801 6.71576Z" fill="#1D1D1B"/>
<path d="M236.432 6.71576C236.306 6.79362 223.812 14.4882 221.018 16.0846C217.897 17.8677 210.657 19.5623 204.326 17.7543C200.405 16.6341 198.797 14.4633 198.139 12.8397C197.342 10.873 197.52 8.56232 198.616 6.66059C200.195 3.91683 203.613 2.39303 207.814 2.39303C209.105 2.39303 210.469 2.53664 211.877 2.83369C212.718 3.0098 213.519 3.28116 214.258 3.63868C216.758 4.85031 218.276 6.92287 218.126 8.91984C218.117 9.03397 218.099 9.16171 218.074 9.29474C217.729 9.03549 217.319 8.83972 216.851 8.72181C216.895 7.29853 215.65 5.72937 213.702 4.78531C213.058 4.47239 212.355 4.2358 211.615 4.0801C206.173 2.93649 201.504 4.1965 199.72 7.29626C198.818 8.86164 198.668 10.7551 199.319 12.3613C199.871 13.7225 201.248 15.5502 204.675 16.529C210.653 18.238 217.461 16.65 220.386 14.9788C223.162 13.3922 235.638 5.70897 235.764 5.63111C236.061 5.44744 236.454 5.54041 236.64 5.83897C236.824 6.13829 236.732 6.53134 236.432 6.71576Z" fill="#1D1D1B"/>
<path d="M282.914 12.5835L285.264 10.2334L282.914 7.88333L280.563 10.2334L282.914 12.5835Z" fill="#1D1D1B"/>
<path d="M287.069 12.5835L289.419 10.2334L287.069 7.88333L284.718 10.2334L287.069 12.5835Z" fill="#1D1D1B"/>
<path d="M148.748 0.606886L140.224 9.13067C139.615 9.73989 139.615 10.727 140.224 11.3363L148.748 19.86C149.357 20.4693 150.344 20.4693 150.953 19.86L159.477 11.3363C160.086 10.727 160.086 9.73989 159.477 9.13067L150.953 0.606886C150.344 -0.00233459 149.357 -0.00233459 148.748 0.606886Z" fill="#1D1D1B"/>
</g>
<defs>
<clipPath id="clip0_8242_273">
<rect width="299.5" height="20.3174" fill="white" transform="matrix(1 0 0 -1 0 20.3174)"/>
</clipPath>
</defs>
</svg>
