<svg xmlns="http://www.w3.org/2000/svg">
  <symbol id="company_logo" viewBox="0 0 80.181 66.949">
    <g clip-path="url(#clip0_8202_52786)">
      <path fill="#b09a0c" fill-rule="evenodd" d="M59.108 9.044c-.512-.68-1.432-1.902-2.116-2.012-1.698 3.528-2.179 7.755-.888 11.488.62 1.794 1.593 3.294 2.589 4.832.29.448.583.9.87 1.363-.916 4.477-3.515 8.507-6.402 11.982-.77.927-1.583 1.902-2.48 2.706 1.56-2.819 1.959-6.028 1.066-9.143-.705-2.459-2.283-4.64-4.558-5.868-2.042-1.102-4.59-1.284-6.797-.596-2.528.788-4.52 2.582-5.737 4.914a12.3 12.3 0 0 0-.919 2.36c-1.191-2.446-2.91-4.457-5.558-5.357-2.08-.708-4.433-.624-6.413.352a7.82 7.82 0 0 0-3.907 4.545c-.895 2.66-.483 5.519.763 7.995 1.82 3.617 5.352 6.732 8.594 9.591.86.759 1.7 1.5 2.482 2.227l3.4 3.171q.244.229.49.47c.493.479 1 .972 1.557 1.34.246-.06.45-.248.64-.422l.076-.07c1.732-1.561 3.404-3.2 5.073-4.837a365 365 0 0 1 2.276-2.219c.921-.888 1.854-1.766 2.788-2.644 1.317-1.238 2.634-2.476 3.92-3.746a68 68 0 0 0 2.832-2.974 42 42 0 0 0 4.454-5.942c.452-.745.83-1.517 1.21-2.29.28-.571.56-1.143.87-1.703.964-1.748 2.634-3.184 4.231-4.335 4.592.903 8.985 1.267 13.058-1.48.837-.565 3.306-2.45 3.61-3.426-.088-.229-.205-.286-.425-.39-.474-.226-1.007-.37-1.521-.51l-.243-.066c-2.814-.777-5.807-.904-8.562.175-1.773.694-3.644 1.85-4.928 3.27-.216.239-.415.497-.614.755-.27.35-.539.698-.85 1.001-.509.493-1.055.955-1.602 1.418-.475.402-.952.805-1.404 1.23.14-1.073.466-1.775.818-2.533.204-.439.417-.897.607-1.456 1.58-4.645.81-9.064-2.18-12.942zM42.66 24.458c.2-.015.398-.014.598-.011a7.57 7.57 0 0 1 5.37 2.372c1.766 1.843 2.612 4.488 2.54 7.015-.059 2.029-.708 3.965-1.76 5.69-1.563 2.564-3.885 4.715-6.122 6.787-.52.482-1.036.96-1.537 1.438l-6.58 6.317c-2.093-2.021-4.261-3.978-6.424-5.931l-.008-.007q-.865-.78-1.729-1.564l-.017-.015c-3.026-2.653-6.594-5.78-7.985-9.651-.789-2.195-.822-4.63.19-6.76a6.67 6.67 0 0 1 3.875-3.482c1.849-.634 3.868-.422 5.608.436 1.895.933 3.378 2.646 4.16 4.596.14.349.248.709.356 1.07.072.24.145.481.227.718.205.166.263.18.525.228.17-.111.57-1.371.916-2.455.207-.653.395-1.242.5-1.48a9.7 9.7 0 0 1 1.473-2.376c1.524-1.809 3.493-2.731 5.824-2.935m5.752 3.469q-4.33.055-8.657.024c-.644 1.752-1.454 3.473-2.257 5.18-.296.63-.591 1.259-.877 1.886q-3.065 6.726-6.2 13.419.66.576 1.302 1.172c1.168-2.772 2.455-5.495 3.743-8.217 1.322-2.798 2.645-5.595 3.838-8.446l.138-.219c.127.13.132.33.136.514l.002.074c.042 1.096.027 2.202.013 3.306q-.012.838-.014 1.671l.017 10.18q.714-.682 1.424-1.374c1.267-1.229 2.541-2.465 3.873-3.604q.051-3.456.023-6.912-.005-.529-.018-1.073c-.026-1.197-.053-2.428.144-3.578.13-.757.361-1.548.922-2.1.798-.787 1.973-.946 3.043-1l-.184-.283q-.201-.314-.411-.62m12.115-15.11c-.55-1.256-2.101-3.883-3.251-4.586-1.422 4.264-1.713 7.746.334 11.874.591 1.192 1.316 2.302 2.046 3.412.17-3.551-.203-6.745-1.096-10.178l.156-.158c.444.253.834 1.694 1.005 2.323l.035.13c.638 2.31.773 4.562.76 6.94 1.244-3.195 1.399-6.578.01-9.756m12.16 5.748c2.223-.15 4.362.252 6.489.872a16.4 16.4 0 0 1-3.13 2.722c-3.504 2.35-7.439 2.23-11.42 1.443.92-.505 1.912-.903 2.887-1.288 1.457-.546 2.966-.946 4.48-1.296.233-.053.472-.091.71-.13.344-.054.688-.11 1.014-.21a.8.8 0 0 0 .386-.222c.067-.071.066-.078.057-.138q-.005-.025-.008-.067l-.013-.008-.01-.007a.3.3 0 0 0-.044-.026c-.216-.093-.618-.042-.93-.002q-.13.017-.233.027c-2.824.25-5.358 1.175-7.957 2.237 2.117-2.186 4.687-3.568 7.722-3.907" clip-rule="evenodd"/>
      <path fill="#fff" fill-rule="evenodd" d="M48.413 27.926a429 429 0 0 1-8.657.025c-.644 1.752-1.454 3.473-2.256 5.18q-.447.945-.878 1.886-3.065 6.726-6.2 13.419.66.576 1.302 1.172c1.168-2.772 2.455-5.495 3.742-8.217 1.323-2.798 2.646-5.595 3.84-8.446l.137-.22c.127.132.132.33.136.514l.002.075c.042 1.096.027 2.202.013 3.306q-.012.838-.014 1.671l.017 10.18q.714-.682 1.424-1.374c1.267-1.23 2.541-2.465 3.873-3.604q.051-3.456.022-6.912-.003-.529-.017-1.073c-.026-1.197-.053-2.428.144-3.578.13-.757.361-1.548.921-2.1.799-.787 1.974-.946 3.044-1l-.184-.283q-.201-.314-.411-.62" clip-rule="evenodd"/>
      <path d="M39.754 27.951q4.328.032 8.657-.025c.204.297.397.603.595.904-1.07.054-2.245.213-3.043 1-.56.552-.792 1.343-.921 2.1-.258 1.498-.134 3.133-.127 4.651q.028 3.456-.023 6.912c-1.83 1.566-3.552 3.314-5.297 4.977l-.017-10.179c0-1.653.064-3.327.002-4.977-.008-.203.005-.44-.139-.588l-.137.22c-2.356 5.624-5.213 11.041-7.582 16.662a60 60 0 0 0-1.303-1.172q3.136-6.693 6.2-13.42c1.061-2.326 2.253-4.666 3.135-7.065M60.44 27.941c1.428.055 11.119-.092 11.463.082.022.113.053.24.055.357.003.328-.025.403-.353.436-2.3.235-3.831.652-5.66 2.184-1.898 1.59-3.622 3.475-5.365 5.233l-7.764 7.773c3.787 4.237 7.469 8.562 11.222 12.828 2.048 2.327 4.74 5.891 7.224 7.531.81.536 1.761 1.02 2.708 1.256.71.177 1.724.188 2.353.554.002.25.058.448-.095.653-1.35.111-2.76.014-4.118-.005q-3.496-.074-6.992-.034c-.829.01-4.575.214-5.088.057l-.064-.298c.251-.754 1.54-.599 2.166-1.051.313-.227.494-.53.53-.917.052-.562-.163-1.102-.439-1.579-.705-1.224-1.778-2.313-2.695-3.389l-4.363-5.111c-1.983-2.299-3.944-4.626-5.991-6.868-1.41 1.422-2.867 2.79-4.266 4.224l.004 6.596c.002 1.289-.067 2.64.073 3.921.304 2.768 1.49 3.398 4.105 3.596.451.035.9.018 1.269.31.094.218.108.266.083.501-.231.114-.52.119-.773.122-3.212.044-6.437-.052-9.651-.036-1.376.007-4.443.186-5.676-.015-.023-.109-.054-.227-.057-.338-.001-.058.01-.355.04-.397.043-.057 3.225-.107 4.257-1.163.453-.463.687-1.139.809-1.764.292-1.495.179-3.118.172-4.635a445 445 0 0 1-.003-5.801c1.697-1.754 3.54-3.403 5.32-5.073l.03 1.997c1.462-1.54 3.05-2.992 4.563-4.488l7.827-7.851c1.524-1.533 3.222-3.046 4.599-4.708.365-.441.819-1.023.897-1.6.064-.476.01-.951-.305-1.331-.547-.66-1.478-.753-2.27-.847zM.65 27.967q5.234.034 10.466-.017c1.4 3.36 2.989 6.654 4.488 9.972l9.762 21.545a332 332 0 0 1 3.832-8.157c.408.35.793.734 1.184 1.102q-2.31 4.958-4.556 9.944c-.59 1.293-1.344 3.332-2.108 4.479-.21.039-.41.097-.621.033-1.139-2.002-2.16-4.64-3.135-6.78L13.83 46.617c-2.067-4.242-4.013-8.566-5.955-12.866.133 6.483.016 12.998.017 19.485 0 2.715-.251 7.312.335 9.81.479 2.043 1.843 2.773 3.81 2.917.495.038 1.084.006 1.517.278.123.22.13.263.126.516q-.032.022-.067.042c-.213.104-.504.104-.738.108-2.622.05-5.26-.012-7.883-.01-.969 0-3.408.152-4.237-.06-.078-.176-.09-.248-.05-.436.446-.594 2.761-.473 3.706-1.052.902-.555 1.37-1.44 1.613-2.442.523-2.145.295-4.646.29-6.852l-.02-9.14-.005-9.143c-.002-1.693.082-3.43-.054-5.115-.06-.733-.214-1.399-.611-2.03-1.157-1.842-3.05-1.48-4.847-1.895-.16-.225-.118-.493-.127-.765"/>
    </g>
    <defs>
      <clipPath id="clip0_8202_52786">
        <path fill="#fff" d="M0 0h80.5v70.683H0z"/>
      </clipPath>
    </defs>
  </symbol>
  <symbol id="burger-btn" viewBox="0 0 18.305 12.443">
    <path d="M.852 12.443a.82.82 0 0 1-.606-.247A.84.84 0 0 1 0 11.58q0-.363.246-.605a.83.83 0 0 1 .606-.243h16.595q.36 0 .61.247a.83.83 0 0 1 .248.61q0 .368-.248.61a.84.84 0 0 1-.61.243zm0-5.37a.82.82 0 0 1-.606-.247.83.83 0 0 1-.246-.61q0-.36.246-.604a.83.83 0 0 1 .606-.242h16.595q.36 0 .61.247a.83.83 0 0 1 .248.609.84.84 0 0 1-.858.847zm0-5.364a.82.82 0 0 1-.606-.247A.84.84 0 0 1 0 .847Q0 .485.246.242A.83.83 0 0 1 .851 0h16.595q.36 0 .61.247a.83.83 0 0 1 .248.609q0 .37-.248.611a.84.84 0 0 1-.61.242z"/>
  </symbol>
  <symbol id="cross" viewBox="0 0 12.651 12.651">
    <path stroke="#000" d="M12.175.5c.164 0 .266.049.346.129a.45.45 0 0 1 .13.346.45.45 0 0 1-.13.346L7.268 6.575l.353.354 4.9 4.9c.08.08.13.182.13.346a.45.45 0 0 1-.13.346.45.45 0 0 1-.346.13.45.45 0 0 1-.347-.13l-4.9-4.9-.353-.353-5.254 5.254a.45.45 0 0 1-.346.128.45.45 0 0 1-.346-.129.45.45 0 0 1-.129-.346c0-.164.049-.267.129-.347l5.253-5.253-.354-.353-4.9-4.9A.45.45 0 0 1 .5.974.45.45 0 0 1 .629.629.45.45 0 0 1 .975.5c.164 0 .266.049.346.129l4.9 4.9.354.353L11.828.629A.45.45 0 0 1 12.175.5Z"/>
  </symbol>
  <symbol id="group" viewBox="0 0 299.469 20.319">
    <defs>
      <clipPath id="clip0_8242_273">
        <path id="svg_1" fill="#fff" d="M0 0h299.5v20.32H0z" transform="matrix(1 0 0 -1 0 20.317)"/>
      </clipPath>
    </defs>
    <g class="layer">
      <g id="svg_2" fill="#1d1d1b" clip-path="url(#clip0_8242_273)">
        <path id="svg_3" d="M130.97 9.24H17.68c-.41 0-.74.33-.74.74s.33.74.74.74h113.29c.41 0 .74-.33.74-.74s-.33-.74-.74-.74"/>
        <path id="svg_4" d="M12.54 2.91c4.48 0 8.66 1.2 10.83 2.44 2.8 1.6 15.29 9.29 15.42 9.37.29.18.39.58.2.88a.63.63 0 0 1-.87.2c-.13-.07-12.6-7.76-15.38-9.34-2.93-1.67-9.73-3.26-15.71-1.55-3.43.98-4.81 2.8-5.36 4.16-.65 1.61-.5 3.5.4 5.07 1.79 3.1 6.46 4.36 11.9 3.22 3.29-.7 5.16-2.81 5.24-4.45.06-1.24-.86-2.23-2.59-2.78l-.16-.05.33-1.23-.18.61.22-.6.18.06c2.3.73 3.56 2.21 3.47 4.05-.13 2.53-2.75 4.9-6.25 5.63-5.99 1.26-11.2-.24-13.26-3.83-1.1-1.9-1.27-4.21-.48-6.18.66-1.62 2.27-3.79 6.19-4.91 1.92-.55 3.92-.77 5.86-.77"/>
        <path id="svg_5" d="M26.67 6.72c.12.07 12.62 7.77 15.41 9.36 3.12 1.79 10.36 3.48 16.69 1.67 3.92-1.12 5.53-3.29 6.19-4.91.8-1.97.62-4.28-.48-6.18-1.58-2.74-4.99-4.27-9.19-4.27-1.3 0-2.66.15-4.07.44-.84.18-1.64.45-2.38.81-2.5 1.21-4.02 3.28-3.87 5.28.01.11.03.24.06.37.34-.25.75-.45 1.22-.57-.05-1.42 1.2-2.99 3.15-3.93.64-.32 1.34-.55 2.08-.71 5.45-1.14 10.11.12 11.9 3.22.9 1.56 1.05 3.46.4 5.06-.55 1.36-1.93 3.19-5.36 4.17-5.97 1.71-12.78.12-15.71-1.55-2.77-1.59-15.25-9.27-15.37-9.35-.3-.18-.7-.09-.88.21s-.09.69.21.88"/>
        <path id="svg_6" d="M63.04 6.72c.12.07 12.62 7.77 15.41 9.36 3.12 1.79 10.36 3.48 16.69 1.67 3.92-1.12 5.53-3.29 6.19-4.91.8-1.97.62-4.28-.48-6.18-1.57-2.74-4.99-4.27-9.19-4.27-1.3 0-2.66.15-4.07.44-.84.18-1.64.45-2.38.81-2.5 1.21-4.02 3.28-3.87 5.28.01.11.03.24.06.37.34-.25.75-.45 1.22-.57-.05-1.42 1.2-2.99 3.15-3.93.64-.32 1.34-.55 2.08-.71 5.45-1.14 10.12.12 11.9 3.22.9 1.56 1.05 3.46.4 5.06-.55 1.36-1.93 3.19-5.36 4.17-5.97 1.71-12.78.12-15.71-1.55-2.77-1.59-15.25-9.27-15.37-9.35a.646.646 0 0 0-.88.21c-.18.3-.09.69.21.88"/>
        <path id="svg_7" d="m18.91 10.23-2.35-2.35-2.36 2.35 2.36 2.35z"/>
        <path id="svg_8" d="M14.75 10.23 12.4 7.88l-2.35 2.35 2.35 2.35z"/>
        <path id="svg_9" d="M168.5 9.24h113.29c.41 0 .74.33.74.74s-.33.74-.74.74H168.5c-.41 0-.74-.33-.74-.74s.33-.74.74-.74"/>
        <path id="svg_10" d="M286.93 2.91c-4.48 0-8.66 1.2-10.83 2.44-2.8 1.6-15.29 9.29-15.42 9.37-.3.18-.39.58-.2.88.18.29.57.39.87.2.13-.07 12.6-7.76 15.38-9.34 2.92-1.67 9.73-3.26 15.71-1.55 3.43.98 4.8 2.8 5.36 4.16.65 1.61.5 3.5-.4 5.07-1.79 3.1-6.46 4.36-11.9 3.22-3.29-.7-5.16-2.81-5.24-4.45-.06-1.24.86-2.23 2.59-2.78l.16-.05-.33-1.23.18.61-.22-.6-.18.06c-2.3.73-3.56 2.21-3.47 4.05.12 2.53 2.75 4.9 6.25 5.63 5.99 1.26 11.19-.24 13.26-3.83 1.1-1.9 1.27-4.21.48-6.18-.66-1.62-2.27-3.79-6.19-4.91-1.92-.55-3.92-.77-5.86-.77"/>
        <path id="svg_11" d="M272.8 6.72c-.12.07-12.62 7.77-15.41 9.36-3.12 1.79-10.36 3.48-16.69 1.67-3.93-1.12-5.53-3.29-6.19-4.91-.8-1.97-.62-4.28.48-6.18 1.57-2.74 4.99-4.27 9.19-4.27 1.29 0 2.66.15 4.07.44.84.18 1.64.45 2.38.81 2.5 1.21 4.02 3.28 3.86 5.28 0 .11-.02.24-.05.37-.34-.25-.75-.45-1.22-.57.04-1.42-1.2-2.99-3.15-3.93-.64-.32-1.35-.55-2.09-.71-5.44-1.14-10.11.12-11.89 3.22-.9 1.56-1.05 3.46-.4 5.06.55 1.36 1.93 3.19 5.35 4.17 5.98 1.71 12.79.12 15.72-1.55 2.77-1.59 15.25-9.27 15.37-9.35.3-.18.69-.09.88.21.18.3.09.69-.21.88"/>
        <path id="svg_12" d="M236.43 6.72c-.12.07-12.62 7.77-15.41 9.36-3.12 1.79-10.36 3.48-16.69 1.67-3.93-1.12-5.53-3.29-6.19-4.91-.8-1.97-.62-4.28.48-6.18 1.58-2.74 4.99-4.27 9.19-4.27 1.29 0 2.66.15 4.07.44.84.18 1.64.45 2.38.81 2.5 1.21 4.02 3.28 3.87 5.28-.01.11-.03.24-.06.37-.34-.25-.75-.45-1.22-.57.05-1.42-1.2-2.99-3.15-3.93-.64-.32-1.35-.55-2.08-.71-5.45-1.14-10.12.12-11.9 3.22-.9 1.56-1.05 3.46-.4 5.06.55 1.36 1.93 3.19 5.36 4.17 5.97 1.71 12.78.12 15.71-1.55 2.77-1.59 15.25-9.27 15.37-9.35.3-.18.69-.09.88.21.18.3.09.69-.21.88"/>
        <path id="svg_13" d="m282.91 12.58 2.35-2.35-2.35-2.35-2.35 2.35z"/>
        <path id="svg_14" d="m287.07 12.58 2.35-2.35-2.35-2.35-2.35 2.35z"/>
        <path id="svg_15" d="m148.75.61-8.53 8.52c-.6.61-.6 1.6 0 2.21l8.53 8.52c.61.61 1.59.61 2.2 0l8.53-8.52c.61-.61.61-1.6 0-2.21L150.95.61c-.61-.61-1.59-.61-2.2 0"/>
      </g>
    </g>
  </symbol>
  <symbol id="glasses" viewBox="0 0 99.795 85.634">
    <g stroke="#000" stroke-miterlimit="10" clip-path="url(#clip0_8244_44178)">
      <path stroke-width="1.186" d="M35.757 40.809c2.385-1.41 4.443-1.482 6.322-.92l3.43-21.888-17.725-2.665L24.74 34.78c.756-.324 1.503-.56 2.099-.747 5.75-1.309 3.92 10.37 8.919 6.775Z"/>
      <path stroke-width="1.186" d="m41.385 44.33.694-4.439c-1.879-.564-3.935-.49-6.322.919-4.998 3.595-3.168-8.085-8.918-6.776-.596.188-1.342.424-2.099.747l-1.08 6.883c-.694 4.44 2.135 8.606 6.441 9.785l-3.547 22.636c-3.612-.428-6.483-.175-6.61.635-.139.89 3.076 2.112 7.181 2.728 4.105.619 7.545.398 7.685-.492.127-.81-2.534-1.895-6.111-2.55l3.546-22.634c4.47.14 8.444-3.002 9.14-7.441ZM61.303 47.757c1.742-2.128 3.645-2.895 5.609-3.001l-4.5-21.702-17.572 3.497 3.998 19.28c.596-.56 1.214-1.036 1.706-1.412 4.934-3.175 7.335 8.404 10.759 3.338Z"/>
      <path stroke-width="1.186" d="m67.824 49.157-.912-4.401c-1.964.106-3.867.873-5.61 3-3.423 5.067-5.824-6.511-10.758-3.337-.492.376-1.11.852-1.706 1.411l1.414 6.825c.913 4.401 5.036 7.354 9.494 7.003L64.398 82.1c-3.54.822-6.145 2.03-5.977 2.833.182.882 3.629.94 7.699.13s7.222-2.182 7.037-3.064c-.165-.803-3.044-.92-6.631-.323l-4.654-22.442c4.244-1.38 6.865-5.676 5.952-10.077Z"/>
      <path stroke-linecap="round" stroke-linejoin="round" stroke-width="1.186" d="M66.912 80.769a8.5 8.5 0 0 0 2.575-2.098L83.71 61.463M70.678 77.762s7.34-7.214 16.838-1.403c0 0-8.406 6.746-16.838 1.403"/>
      <path stroke-linecap="round" stroke-linejoin="round" stroke-width="1.186" d="M83.083 62.135s6.852-7.662 16.712-2.459c0 0-7.946 7.26-16.712 2.46M74.772 71.122s-8.392-6.015-3.968-16.095c0 0 8.079 7.118 3.968 16.095"/>
      <path stroke-linecap="round" stroke-linejoin="round" stroke-width=".783" d="M21.613 75.528a5.7 5.7 0 0 1-1.694-1.379l-9.347-11.31M19.138 73.55s-4.825-4.74-11.067-.92c0 0 5.525 4.433 11.067.92"/>
      <path stroke-linecap="round" stroke-linejoin="round" stroke-width=".783" d="M10.984 63.28S6.48 58.246 0 61.664c0 0 5.222 4.773 10.984 1.618M16.447 69.188s5.516-3.954 2.609-10.58c0 0-5.311 4.679-2.61 10.58"/>
    </g>
    <defs>
      <clipPath id="clip0_8244_44178">
        <path fill="#fff" d="M0 0h100v100H0z"/>
      </clipPath>
    </defs>
  </symbol>
  <symbol id="church" viewBox="0 0 88.817 88.817">
    <path stroke="#000" stroke-miterlimit="10" stroke-width="1.02" d="M59.113 88.817h-15.02V35.796l7.51-13.71 7.51 13.71zM51.603 22.085V11.182M49.507 15.479h4.191"/>
    <path stroke="#000" stroke-miterlimit="10" stroke-width="1.02" d="M53.698 60.827h-4.191V43.254c0-2.844.675-5.652 1.977-8.217l.119-.233.118.233a18.15 18.15 0 0 1 1.977 8.217zM53.698 88.817h-4.191v-5.2c0-2.844.675-5.653 1.977-8.217l.119-.233.118.233a18.15 18.15 0 0 1 1.977 8.218zM51.603 72.381c-1.157 0-2.096-.888-2.096-1.982v-3.412c0-1.094.939-1.981 2.096-1.981s2.095.887 2.095 1.981V70.4c0 1.094-.938 1.982-2.095 1.982ZM67.56 73.432v-2.967c0-1.095-.938-1.982-2.097-1.982-1.157 0-2.095.887-2.095 1.982v2.967z"/>
    <path stroke="#000" stroke-miterlimit="10" stroke-width="1.02" d="M64.319 88.817h-5.206V58.221h.854c7.223 0 13.078 5.537 13.078 12.367v9.976c0 4.558-3.907 8.253-8.726 8.253ZM35.617 73.432v-2.967c0-1.095.938-1.982 2.096-1.982s2.096.887 2.096 1.982v2.967z"/>
    <path stroke="#000" stroke-miterlimit="10" stroke-width="1.02" d="M38.859 88.817h5.205V58.221h-.855c-7.222 0-13.077 5.537-13.077 12.367v9.976c0 4.558 3.907 8.253 8.727 8.253Z"/>
    <path stroke="#000" stroke-linecap="round" stroke-linejoin="round" stroke-miterlimit="10" stroke-width="1.02" d="M70.19 62.542c.59-.68 1.04-1.47 1.314-2.33l5.463-17.06M72.132 59.18s3.355-7.563 12.556-6.053c0 0-4.327 7.528-12.556 6.052"/>
    <path stroke="#000" stroke-linecap="round" stroke-linejoin="round" stroke-miterlimit="10" stroke-width="1.02" d="M76.699 43.84s2.833-7.751 12.118-6.804c0 0-3.807 7.777-12.118 6.804M73.164 53.012s-8.411-1.988-8.23-10.82c0 0 8.524 2.904 8.23 10.82M31.133 84.67a6.7 6.7 0 0 1-1.44-2.258l-6.41-16.75M29.011 81.415s-3.766-7.376-12.795-5.393c0 0 4.727 7.293 12.795 5.392"/>
    <path stroke="#000" stroke-linecap="round" stroke-linejoin="round" stroke-miterlimit="10" stroke-width="1.02" d="M23.589 66.335s-3.262-7.591-12.406-6.163c0 0 4.227 7.565 12.406 6.163"/>
  </symbol>
  <symbol id="camera" viewBox="0 0 100.5 81.571">
    <g stroke="#000" stroke-linecap="round" stroke-linejoin="round" stroke-miterlimit="10" clip-path="url(#clip0_8244_44216)">
      <path stroke-width="1.183" d="M54.719 39.412h8.623v4.47h-8.623zM42.304 63.142c0-8.18 6.631-14.811 14.811-14.811s14.811 6.631 14.811 14.81-6.631 14.812-14.811 14.812-14.811-6.631-14.811-14.811"/>
      <path stroke-width="1.183" d="M47.273 63.143c0-5.436 4.406-9.842 9.842-9.842s9.842 4.406 9.842 9.842-4.406 9.843-9.842 9.843-9.843-4.407-9.843-9.843M91.303 51.222v-3.914c0-1.95-1.58-3.53-3.531-3.53H29.554a3.53 3.53 0 0 0-3.531 3.53v3.913"/>
      <path stroke-width="1.183" d="M48.157 51.221H26.023v26.82c0 1.949 1.581 3.53 3.531 3.53h58.218a3.53 3.53 0 0 0 3.531-3.53V51.22H66.215M87.083 48.025h-7.596a.94.94 0 0 1-.938-.938.94.94 0 0 1 .938-.938h7.596a.94.94 0 0 1 .938.938.94.94 0 0 1-.938.938"/>
      <path stroke-width="1.183" d="M31.939 78.036h-1.501c-.67 0-1.218-.549-1.218-1.22s.548-1.22 1.218-1.22h1.5c.671 0 1.22.549 1.22 1.22s-.549 1.22-1.22 1.22M70.704 39.412H47.355a.784.784 0 0 1-.784-.783V26.431c0-.433.351-.784.784-.784h23.35c.432 0 .783.35.783.784v12.198a.784.784 0 0 1-.784.783"/>
      <path stroke-width="1.183" d="M65.857 36.41H52.202a1.13 1.13 0 0 1-1.13-1.129v-5.502c0-.624.505-1.13 1.13-1.13h13.655c.624 0 1.13.506 1.13 1.13v5.502a1.13 1.13 0 0 1-1.13 1.13M66.688 43.064a8.3 8.3 0 0 0 2.693-1.799L84.84 25.806M70.62 40.493s7.807-6.343 16.345.325c0 0-8.783 5.773-16.345-.325"/>
      <path stroke-width="1.183" d="M84.168 26.402s7.382-6.83 16.332-.723c0 0-8.394 6.323-16.332.723M75.245 34.387s-7.454-6.753-2.158-16.204c0 0 7.039 7.804 2.158 16.204"/>
      <path stroke-width=".863" d="M25.333 72.744a6.1 6.1 0 0 1-1.978-1.32L12 60.067M22.445 70.857s-5.734-4.658-12.004.239c0 0 6.45 4.24 12.004-.24"/>
      <path stroke-width=".863" d="M12.495 60.508S7.072 55.491.5 59.976c0 0 6.164 4.645 11.995.532M19.048 66.372s5.475-4.96 1.585-11.902c0 0-5.17 5.733-1.585 11.902"/>
    </g>
    <defs>
      <clipPath id="clip0_8244_44216">
        <path fill="#fff" d="M0 0h100v100H0z"/>
      </clipPath>
    </defs>
  </symbol>
  <symbol id="arrow-left" viewBox="0 0 15.469 15.124">
    <path stroke="#000" d="M7.821.5c.086 0 .16.026.242.108a.34.34 0 0 1 .108.25c0 .086-.027.16-.108.243L1.7 7.46h13.41c.122 0 .197.036.261.1a.32.32 0 0 1 .097.252c0 .12-.035.192-.097.253a.34.34 0 0 1-.26.099H1.701l6.355 6.356v-.002c.082.083.11.16.111.252a.3.3 0 0 1-.056.185l-.051.062a.31.31 0 0 1-.243.106.34.34 0 0 1-.255-.113L.614 8.063a.4.4 0 0 1-.09-.126.3.3 0 0 1-.024-.125q.001-.07.023-.122a.4.4 0 0 1 .091-.126l6.95-6.95A.35.35 0 0 1 7.821.5Z"/>
  </symbol>
  <symbol id="arrow-right" viewBox="0 0 15.463 15.124">
    <path stroke="#000" d="M8.145.5c.07 0 .132.017.194.06L8.4.614l6.949 6.949a.4.4 0 0 1 .09.125.3.3 0 0 1 .024.125.3.3 0 0 1-.023.122.4.4 0 0 1-.091.126l-6.954 6.948c-.092.09-.17.116-.253.116-.081 0-.153-.025-.237-.11l-.005-.005-.051-.06a.3.3 0 0 1-.057-.183c0-.065.015-.123.057-.182l.051-.06 6.362-6.362H.852c-.123 0-.195-.035-.255-.096H.596C.535 8.006.5 7.933.5 7.811s.035-.195.096-.256c.061-.06.133-.096.256-.096h13.41L7.906 1.104a.35.35 0 0 1-.105-.185L7.795.852C7.794.762 7.82.688 7.9.607h.001A.31.31 0 0 1 8.145.5Z"/>
  </symbol>
  <symbol id="plus" viewBox="0 0 14.305 14.305">
    <path d="M6.298 8.007H.852a.82.82 0 0 1-.606-.247A.83.83 0 0 1 0 7.151q0-.362.246-.605a.83.83 0 0 1 .606-.242h5.446V.858a.83.83 0 0 1 .247-.609A.82.82 0 0 1 7.154 0a.8.8 0 0 1 .605.249A.84.84 0 0 1 8 .858v5.446h5.446q.36 0 .609.247a.82.82 0 0 1 .249.609.8.8 0 0 1-.249.605.84.84 0 0 1-.609.242H8.001v5.446q0 .36-.247.607a.83.83 0 0 1-.609.245.82.82 0 0 1-.605-.245.83.83 0 0 1-.242-.607z"/>
  </symbol>
  <symbol id="circle" viewBox="0 0 9.245 9.245">
    <path d="M4.623 0a4.624 4.624 0 0 0 0 9.245 4.623 4.623 0 0 0 0-9.245m0 7.62a2.998 2.998 0 1 1 0-5.996 2.998 2.998 0 0 1 0 5.997"/>
  </symbol>
  <symbol id="cube" viewBox="0 0 21 22">
    <path fill-rule="evenodd" d="m20.73 7.12-.14-.25a2.1 2.1 0 0 0-.74-.73l-6.71-3.87a2 2 0 0 0-1-.27h-.29a2 2 0 0 0-1 .27L4.14 6.15a2 2 0 0 0-.73.73l-.14.25a2 2 0 0 0-.27 1v7.75a2 2 0 0 0 .27 1l.14.25c.18.3.43.55.73.73l6.72 3.87c.302.18.648.273 1 .27h.28a2 2 0 0 0 1-.27l6.71-3.88a1.9 1.9 0 0 0 .73-.73l.15-.25a2.05 2.05 0 0 0 .27-1V8.12a2 2 0 0 0-.27-1M11.85 4h.29L18 7.38l-6 3.46-6-3.46zM13 19.5l5.85-3.38.15-.25V9.11l-6 3.47z" clip-rule="evenodd"/>
  </symbol>
  <symbol id="letter" viewBox="0 0 19.805 15.805">
    <path stroke="#000" d="M1.203 1.897v13.205h17.893V2.294l-.776.51-7.956 5.238q-.09.048-.158.075a.2.2 0 0 1-.057.006.2.2 0 0 1-.056-.006 2 2 0 0 1-.16-.075l-7.73-5.09v-.4l7.673 5.025.273.18.274-.179 8.347-5.45 1.01-.661q.024.116.025.242v12.893c0 .32-.113.594-.362.842-.248.248-.523.36-.847.36H1.703c-.322 0-.595-.112-.843-.36l-.087-.093A1.12 1.12 0 0 1 .5 14.6V1.71q.001-.133.026-.255zM1.703.5h16.893c.323 0 .597.113.846.362h.001q.164.164.25.347H.61q.087-.183.25-.348h.001C1.11.612 1.382.5 1.703.5Z"/>
  </symbol>
  <symbol id="location" viewBox="0 0 15.805 19.281">
    <path stroke="#000" d="M8.15.5c2.024 0 3.802.705 5.355 2.133 1.523 1.401 2.3 3.285 2.3 5.705 0 .985-.217 1.97-.66 2.958a15.7 15.7 0 0 1-1.707 2.912 23 23 0 0 1-2.253 2.621 55 55 0 0 1-2.302 2.186l-.006.005-.005.004a.8.8 0 0 1-.317.188q-.22.07-.413.07-.194 0-.403-.07a.8.8 0 0 1-.3-.182l-.008-.009-.01-.007a53 53 0 0 1-2.307-2.185 23 23 0 0 1-2.253-2.621 15.5 15.5 0 0 1-1.705-2.911C.716 10.309.5 9.323.5 8.337c0-2.42.776-4.303 2.298-5.704C4.348 1.205 6.125.5 8.149.5Zm0 .709c-1.936 0-3.59.669-4.932 2.003-1.35 1.342-2.015 3.066-2.015 5.126 0 1.42.594 2.959 1.698 4.603 1.105 1.646 2.746 3.475 4.908 5.486l.337.313.34-.308c2.212-2.008 3.87-3.839 4.952-5.492 1.08-1.647 1.658-3.186 1.658-4.602 0-2.06-.665-3.784-2.015-5.126V3.21C11.74 1.877 10.085 1.209 8.15 1.209Zm-.003 5.648c.367 0 .664.123.921.38.257.254.38.55.38.916 0 .367-.124.663-.379.917a1.23 1.23 0 0 1-.918.377c-.367 0-.662-.123-.917-.376a1.22 1.22 0 0 1-.377-.913c0-.321.095-.59.289-.824l.088-.098a1.22 1.22 0 0 1 .913-.379Z"/>
  </symbol>
  <symbol id="phone" viewBox="0 0 17.805 17.805">
    <path stroke="#000" d="M1.269.5h3.5c.183 0 .31.055.416.153a.94.94 0 0 1 .23.354l.052.163.665 3.014c.033.231.025.416-.01.563a.66.66 0 0 1-.192.334l-.007.006L3.405 7.57l-.279.276.2.336q.64 1.076 1.36 2.015.725.945 1.608 1.795a18 18 0 0 0 1.924 1.724q1.012.78 2.116 1.364l.331.175.26-.268 2.406-2.467.01-.011a1 1 0 0 1 .442-.29q.196-.057.392-.042l.132.017 2.82.624a1 1 0 0 1 .404.212l.1.103a.74.74 0 0 1 .174.493v3.41a.73.73 0 0 1-.218.55.73.73 0 0 1-.55.219c-1.876 0-3.796-.45-5.765-1.366q-2.953-1.37-5.493-3.908-2.38-2.38-3.734-5.127l-.177-.368C.951 5.065.5 3.146.5 1.274A.76.76 0 0 1 .623.833L.719.719A.73.73 0 0 1 1.269.5Zm-.053 1.23q.046 1.07.333 2.244.288 1.182.895 2.606l.29.679.523-.52 2.02-2.009.193-.192-.058-.267-.568-2.667-.085-.395H1.193zm15.88 11.802-.399-.082-2.485-.514-.272-.056-.192.2-1.963 2.058-.481.504.633.295a12.6 12.6 0 0 0 2.257.788q1.217.305 2.376.364l.526.026z"/>
  </symbol>
  <symbol id="facebook" viewBox="0 0 20 20">
    <path d="M20 10.061C20 4.505 15.523 0 10 0S0 4.505 0 10.061C0 15.083 3.657 19.245 8.438 20v-7.03h-2.54V10.06h2.54V7.845c0-2.522 1.492-3.915 3.777-3.915 1.094 0 2.238.197 2.238.197v2.476h-1.26c-1.243 0-1.63.775-1.63 1.57v1.888h2.773l-.443 2.908h-2.33V20c4.78-.755 8.437-4.917 8.437-9.939"/>
  </symbol>
  <symbol id="instagram" viewBox="0 0 20.988 20.995">
    <path d="M11.999 4.62c2.404 0 2.689.012 3.634.054.88.039 1.353.186 1.67.31.418.161.72.358 1.033.67.317.317.51.616.675 1.034.123.317.27.795.31 1.67.042.95.052 1.234.052 3.635s-.01 2.69-.053 3.635c-.038.88-.186 1.353-.309 1.67a2.8 2.8 0 0 1-.671 1.033c-.317.317-.616.51-1.034.675-.316.123-.794.27-1.67.31-.949.042-1.233.052-3.634.052s-2.69-.01-3.635-.053c-.88-.038-1.354-.186-1.67-.309a2.8 2.8 0 0 1-1.034-.672 2.8 2.8 0 0 1-.675-1.033c-.123-.316-.27-.794-.31-1.67-.041-.949-.052-1.233-.052-3.635 0-2.4.01-2.688.053-3.634.039-.88.186-1.354.31-1.67.161-.419.358-.72.67-1.034a2.8 2.8 0 0 1 1.034-.675c.317-.123.795-.27 1.67-.31.946-.041 1.23-.052 3.635-.052m0-1.62c-2.443 0-2.749.011-3.709.053-.956.043-1.613.197-2.183.419a4.4 4.4 0 0 0-1.595 1.04 4.4 4.4 0 0 0-1.04 1.593c-.222.573-.377 1.226-.42 2.182C3.012 9.251 3 9.557 3 12c0 2.444.01 2.749.053 3.709.042.956.197 1.614.418 2.183a4.4 4.4 0 0 0 1.04 1.595 4.4 4.4 0 0 0 1.593 1.037c.573.222 1.227.377 2.183.419.96.042 1.265.053 3.708.053s2.75-.01 3.71-.053c.955-.042 1.613-.197 2.182-.419a4.4 4.4 0 0 0 1.592-1.037c.499-.5.809-1.001 1.037-1.592.222-.573.376-1.226.419-2.183.042-.96.053-1.265.053-3.708s-.011-2.749-.053-3.709c-.043-.956-.197-1.613-.419-2.183a4.2 4.2 0 0 0-1.03-1.6 4.4 4.4 0 0 0-1.592-1.036c-.573-.222-1.226-.377-2.183-.419C14.748 3.011 14.443 3 12 3"/>
    <path d="M11.999 7.376a4.624 4.624 0 0 0 0 9.246 4.623 4.623 0 0 0 0-9.246m0 7.621a2.998 2.998 0 1 1 0-5.997 2.998 2.998 0 0 1 0 5.997M17.882 7.194a1.08 1.08 0 1 1-2.158 0 1.08 1.08 0 0 1 2.158 0"/>
  </symbol>
  <symbol id="x" viewBox="0 0 18 16">
    <path d="M14.176 0h2.76l-6.03 6.777L18 16h-5.554l-4.35-5.593L3.116 16H.355l6.45-7.25L0 0h5.695l3.933 5.113zm-.969 14.375h1.53L4.864 1.54h-1.64z"/>
  </symbol>
</svg>
