<svg aria-hidden="true" style="position: absolute; width: 0; height: 0; overflow: hidden;" version="1.1" xmlns="http://www.w3.org/2000/svg" xmlns:xlink="http://www.w3.org/1999/xlink">
<defs>
<symbol id="icon-cube" viewBox="0 0 32 32">
<path d="M27.64 9.493c0.235 0.405 0.359 0.865 0.36 1.333v10.333c-0.004 0.468-0.128 0.927-0.36 1.333l-0.2 0.333c-0.228 0.408-0.565 0.745-0.973 0.973l-8.947 5.173c-0.405 0.235-0.865 0.359-1.333 0.36h-0.373c-0.469 0.004-0.93-0.12-1.333-0.36l-8.96-5.16c-0.399-0.24-0.734-0.574-0.973-0.973l-0.187-0.333c-0.235-0.405-0.359-0.865-0.36-1.333v-10.333c0.001-0.468 0.125-0.928 0.36-1.333l0.187-0.333c0.234-0.404 0.569-0.74 0.973-0.973l8.947-5.173c0.405-0.235 0.865-0.359 1.333-0.36h0.387c0.468 0.001 0.928 0.125 1.333 0.36l8.947 5.16c0.406 0.235 0.746 0.57 0.987 0.973l0.187 0.333zM15.8 5.333l-7.8 4.507 8 4.613 8-4.613-7.813-4.507h-0.387zM17.333 26l7.8-4.507 0.2-0.333v-9.013l-8 4.627v9.227z"></path>
</symbol>
<symbol id="icon-circle" viewBox="0 0 32 32">
<path d="M14.792 0c-8.165 0-14.792 6.625-14.792 14.792s6.625 14.792 14.792 14.792c8.167 0 14.792-6.625 14.792-14.792 0-8.165-6.625-14.792-14.792-14.792zM14.792 24.387c-5.299 0-9.595-4.296-9.595-9.595s4.296-9.595 9.595-9.595c5.299 0 9.595 4.296 9.595 9.595s-4.296 9.595-9.595 9.595z"></path>
</symbol>
<symbol id="icon-x" viewBox="0 0 36 32">
<path d="M28.352 0h5.52l-12.060 13.555 14.188 18.445h-11.109l-8.701-11.187-9.956 11.187h-5.524l12.899-14.498-13.61-17.502h11.391l7.865 10.225 9.096-10.225zM26.415 28.751h3.059l-19.745-25.672h-3.282l19.968 25.672z"></path>
</symbol>
<symbol id="icon-arrow-left" viewBox="0 0 32 32">
<path stroke-linejoin="miter" stroke-linecap="butt" stroke-miterlimit="4" stroke-width="2" d="M15.643 1c0.171 0 0.318 0.053 0.482 0.217 0.165 0.172 0.217 0.326 0.217 0.498-0 0.174-0.053 0.322-0.217 0.486l-12.723 12.723h26.82c0.243 0 0.393 0.071 0.522 0.197 0.124 0.123 0.193 0.266 0.193 0.506s-0.069 0.383-0.193 0.506c-0.128 0.127-0.279 0.197-0.522 0.197h-26.82l12.711 12.709c0.165 0.165 0.221 0.319 0.223 0.502v0.002c0.001 0.133-0.028 0.25-0.111 0.369l-0.104 0.123c-0.16 0.162-0.306 0.214-0.484 0.213-0.189-0.002-0.346-0.062-0.512-0.227l-13.896-13.896c-0.106-0.108-0.158-0.193-0.182-0.25v-0.002c-0.030-0.073-0.047-0.153-0.047-0.248s0.017-0.173 0.047-0.244v-0.002c0.024-0.057 0.075-0.142 0.182-0.25l13.9-13.9c0.181-0.174 0.34-0.229 0.514-0.229z"></path>
</symbol>
<symbol id="icon-arrow-right" viewBox="0 0 32 32">
<path stroke-linejoin="miter" stroke-linecap="butt" stroke-miterlimit="4" stroke-width="2" d="M16.289 1c0.142 0.001 0.266 0.035 0.389 0.121l0.123 0.105 13.896 13.896c0.106 0.108 0.158 0.193 0.182 0.25v0.002c0.030 0.073 0.047 0.153 0.047 0.248s-0.017 0.173-0.047 0.244v0.002c-0.024 0.057-0.075 0.142-0.182 0.25l-13.908 13.896c-0.183 0.181-0.34 0.232-0.506 0.232-0.161-0-0.306-0.049-0.473-0.221l-0.010-0.010-0.104-0.121c-0.084-0.119-0.113-0.235-0.113-0.365s0.030-0.245 0.113-0.363l0.104-0.121 12.723-12.723h-26.82c-0.244-0-0.389-0.070-0.51-0.191h-0.002c-0.122-0.122-0.191-0.268-0.191-0.512s0.070-0.39 0.191-0.512h0.002c0.121-0.121 0.266-0.191 0.51-0.191h26.82l-12.711-12.711c-0.123-0.123-0.186-0.24-0.211-0.369l-0.012-0.135c-0.002-0.18 0.050-0.327 0.211-0.488l0.002-0.002c0.16-0.161 0.307-0.214 0.486-0.213z"></path>
</symbol>
<symbol id="icon-plus" viewBox="0 0 32 32">
<path d="M13.435 17.082h-11.618c-0.513 0-0.944-0.176-1.293-0.527s-0.524-0.784-0.524-1.3c0-0.515 0.175-0.945 0.524-1.29s0.78-0.517 1.293-0.517h11.618v-11.618c0-0.512 0.176-0.945 0.527-1.299s0.784-0.531 1.3-0.531c0.515 0 0.945 0.177 1.29 0.531s0.517 0.787 0.517 1.299v11.618h11.618c0.512 0 0.945 0.176 1.299 0.527s0.531 0.784 0.531 1.3c0 0.515-0.177 0.945-0.531 1.29s-0.787 0.517-1.299 0.517h-11.618v11.618c0 0.513-0.176 0.944-0.527 1.293s-0.784 0.524-1.3 0.524c-0.515 0-0.945-0.174-1.29-0.524s-0.517-0.78-0.517-1.293v-11.618z"></path>
</symbol>
<symbol id="icon-cross" viewBox="0 0 32 32">
<path stroke-linejoin="miter" stroke-linecap="butt" stroke-miterlimit="4" stroke-width="2.2857" d="M27.828 1.143c0.376 0 0.609 0.111 0.792 0.295s0.294 0.416 0.295 0.79c0 0.375-0.111 0.609-0.295 0.792l-12.009 12.009 12.009 12.007c0.184 0.184 0.295 0.417 0.295 0.792s-0.111 0.609-0.295 0.792-0.417 0.295-0.792 0.295c-0.375 0-0.609-0.111-0.792-0.295l-12.007-12.009-12.009 12.009c-0.184 0.184-0.417 0.295-0.792 0.295s-0.607-0.111-0.79-0.295c-0.184-0.184-0.295-0.417-0.295-0.792s0.111-0.609 0.295-0.792l12.007-12.007-12.007-12.009c-0.184-0.184-0.295-0.417-0.295-0.792s0.111-0.607 0.295-0.79 0.415-0.294 0.79-0.295c0.375 0 0.609 0.111 0.792 0.295l12.009 12.007 12.007-12.007c0.184-0.184 0.417-0.295 0.792-0.295z"></path>
</symbol>
<symbol id="icon-letter" viewBox="0 0 40 32">
<path stroke-linejoin="miter" stroke-linecap="butt" stroke-miterlimit="4" stroke-width="1.8824" d="M2.265 3.572v24.855h33.68v-24.109l-16.436 10.82c-0.114 0.060-0.212 0.108-0.298 0.142-0.006 0.002-0.038 0.011-0.107 0.011-0.070-0-0.101-0.009-0.107-0.011-0.086-0.034-0.185-0.082-0.3-0.142l-14.551-9.583v-0.752l14.958 9.798 18.129-11.84c0.029 0.146 0.046 0.298 0.046 0.456v24.268c0 0.605-0.211 1.119-0.68 1.586s-0.986 0.678-1.596 0.678h-31.798c-0.606 0-1.12-0.212-1.586-0.678l-0.164-0.176c-0.353-0.419-0.515-0.88-0.515-1.41v-24.268c0-0.167 0.017-0.326 0.050-0.48l1.274 0.835zM3.206 0.941h31.798c0.609 0 1.125 0.213 1.594 0.682h0.002c0.206 0.206 0.36 0.424 0.471 0.653h-35.921c0.11-0.23 0.264-0.448 0.471-0.654h0.002c0.467-0.468 0.98-0.68 1.585-0.68z"></path>
</symbol>
<symbol id="icon-phone" viewBox="0 0 32 32">
<path stroke-linejoin="miter" stroke-linecap="butt" stroke-miterlimit="4" stroke-width="1.6842" d="M2.136 0.842h5.895c0.309 0 0.524 0.092 0.701 0.258 0.157 0.148 0.29 0.341 0.388 0.595l0.087 0.275 1.12 5.076c0.055 0.39 0.042 0.702-0.016 0.949-0.052 0.221-0.156 0.403-0.324 0.562l-0.012 0.010-4.711 4.646 0.337 0.566c0.719 1.208 1.482 2.34 2.291 3.395 0.813 1.060 1.716 2.067 2.707 3.023 1.033 1.066 2.113 2.035 3.24 2.903 1.137 0.875 2.325 1.642 3.564 2.298l0.557 0.294 4.507-4.625c0.235-0.255 0.482-0.408 0.745-0.487 0.221-0.065 0.439-0.088 0.66-0.072l0.222 0.029 4.75 1.051c0.279 0.078 0.501 0.198 0.681 0.357l0.168 0.173c0.197 0.237 0.293 0.503 0.293 0.831v5.743c0 0.399-0.125 0.688-0.367 0.928-0.247 0.244-0.538 0.367-0.928 0.367-3.158-0-6.392-0.758-9.709-2.299-3.315-1.54-6.398-3.731-9.25-6.582-2.673-2.673-4.766-5.551-6.289-8.635l-0.298-0.62c-1.544-3.32-2.304-6.553-2.304-9.704 0-0.3 0.070-0.539 0.207-0.743l0.161-0.192c0.243-0.244 0.532-0.368 0.926-0.368zM2.048 2.914c0.052 1.201 0.241 2.461 0.561 3.778 0.323 1.327 0.827 2.792 1.508 4.39l0.487 1.143 4.609-4.582-0.097-0.449-0.957-4.492-0.143-0.666h-6.005l0.038 0.878zM28.793 22.791l-5.314-1.099-0.324 0.337-4.117 4.314 1.066 0.497c1.17 0.544 2.439 0.986 3.803 1.327 1.365 0.342 2.7 0.548 4.002 0.614l0.885 0.044v-6.035z"></path>
</symbol>
<symbol id="icon-location" viewBox="0 0 27 32">
<path stroke-linejoin="miter" stroke-linecap="butt" stroke-miterlimit="4" stroke-width="1.6" d="M13.039 0.8c3.239 0 6.085 1.127 8.569 3.413 2.438 2.243 3.68 5.256 3.68 9.128-0 1.576-0.347 3.152-1.055 4.733-0.726 1.621-1.636 3.174-2.733 4.659-1.106 1.498-2.308 2.896-3.605 4.194-1.317 1.318-2.545 2.483-3.683 3.497l-0.009 0.008-0.008 0.008c-0.145 0.137-0.312 0.236-0.508 0.3-0.234 0.076-0.454 0.111-0.661 0.111s-0.421-0.035-0.644-0.109c-0.185-0.062-0.342-0.158-0.48-0.292l-0.014-0.014-0.016-0.012c-1.144-1.013-2.374-2.178-3.691-3.495-1.297-1.298-2.498-2.696-3.605-4.194-1.096-1.485-2.006-3.037-2.728-4.658-0.705-1.581-1.050-3.158-1.050-4.734 0-3.873 1.242-6.886 3.677-9.128 2.481-2.285 5.324-3.412 8.563-3.413zM13.039 1.934c-3.096 0-5.744 1.070-7.891 3.205-2.159 2.148-3.223 4.905-3.223 8.202 0 2.271 0.95 4.734 2.717 7.366 1.768 2.633 4.393 5.559 7.852 8.777l0.539 0.501 0.544-0.494c3.541-3.212 6.193-6.141 7.925-8.786 1.726-2.635 2.651-5.098 2.652-7.364 0-3.297-1.064-6.054-3.223-8.202v-0.002c-2.147-2.134-4.795-3.203-7.891-3.203zM13.036 10.972c0.586 0 1.062 0.197 1.473 0.606 0.41 0.408 0.606 0.882 0.606 1.467s-0.197 1.060-0.605 1.467c-0.408 0.407-0.883 0.603-1.469 0.603s-1.060-0.197-1.467-0.602c-0.406-0.404-0.603-0.875-0.603-1.461 0-0.514 0.151-0.944 0.461-1.319l0.142-0.156c0.405-0.409 0.876-0.606 1.461-0.606z"></path>
</symbol>
<symbol id="icon-burger-btn" viewBox="0 0 47 32">
<path d="M2.097 30.628c-0.592 0-1.089-0.203-1.492-0.608s-0.604-0.91-0.604-1.514c0-0.595 0.201-1.091 0.604-1.489s0.9-0.596 1.492-0.596h40.85c0.592 0 1.092 0.203 1.5 0.608s0.612 0.905 0.612 1.5c0 0.605-0.204 1.106-0.612 1.503s-0.908 0.597-1.5 0.597h-40.85zM2.097 17.41c-0.592 0-1.089-0.203-1.492-0.608s-0.604-0.905-0.604-1.5c0-0.594 0.201-1.091 0.604-1.489s0.9-0.597 1.492-0.597h40.85c0.592 0 1.092 0.203 1.5 0.608s0.612 0.905 0.612 1.5c0 0.594-0.204 1.091-0.612 1.489s-0.908 0.597-1.5 0.597h-40.85zM2.097 4.207c-0.592 0-1.089-0.202-1.492-0.607s-0.604-0.91-0.604-1.514c0-0.595 0.201-1.091 0.604-1.489s0.9-0.597 1.492-0.597h40.85c0.592 0 1.092 0.202 1.5 0.607s0.612 0.905 0.612 1.5c0 0.605-0.204 1.106-0.612 1.504s-0.908 0.596-1.5 0.596h-40.85z"></path>
</symbol>
<symbol id="icon-facebook" viewBox="0 0 32 32">
<path d="M32 16.098c0-8.891-7.163-16.098-16-16.098s-16 7.207-16 16.098c0 8.035 5.851 14.695 13.5 15.902v-11.249h-4.063v-4.653h4.063v-3.547c0-4.035 2.389-6.263 6.043-6.263 1.751 0 3.582 0.314 3.582 0.314v3.962h-2.017c-1.988 0-2.608 1.241-2.608 2.514v3.020h4.437l-0.709 4.653h-3.728v11.249c7.649-1.208 13.5-7.867 13.5-15.902z"></path>
</symbol>
</defs>
</svg>
