<svg aria-hidden="true" style="position: absolute; width: 0; height: 0; overflow: hidden;" version="1.1" xmlns="http://www.w3.org/2000/svg" xmlns:xlink="http://www.w3.org/1999/xlink">
<defs>

<symbol id="camera" viewBox="0 0 32 32">
<path stroke-linejoin="round" stroke-linecap="round" stroke-miterlimit="10" stroke-width="0.3785" d="M17.51 12.612h2.759v1.431h-2.759v-1.431z"></path>
<path stroke-linejoin="round" stroke-linecap="round" stroke-miterlimit="10" stroke-width="0.3785" d="M13.537 20.205c0-2.618 2.122-4.74 4.74-4.74s4.74 2.122 4.74 4.74c0 2.618-2.122 4.74-4.74 4.74s-4.74-2.122-4.74-4.74z"></path>
<path stroke-linejoin="round" stroke-linecap="round" stroke-miterlimit="10" stroke-width="0.3785" d="M15.127 20.206c0-1.739 1.41-3.15 3.15-3.15s3.15 1.41 3.15 3.15c0 1.739-1.41 3.15-3.15 3.15s-3.15-1.41-3.15-3.15z"></path>
<path stroke-linejoin="round" stroke-linecap="round" stroke-miterlimit="10" stroke-width="0.3785" d="M29.217 16.391v-1.252c0-0.624-0.506-1.13-1.13-1.13h-18.63c-0.624 0-1.13 0.506-1.13 1.13v1.252"></path>
<path stroke-linejoin="round" stroke-linecap="round" stroke-miterlimit="10" stroke-width="0.3785" d="M15.41 16.391h-7.083v8.582c0 0.624 0.506 1.13 1.13 1.13h18.63c0.624 0 1.13-0.506 1.13-1.13v-8.582h-8.028"></path>
<path stroke-linejoin="round" stroke-linecap="round" stroke-miterlimit="10" stroke-width="0.3785" d="M27.867 15.368h-2.431c-0.165 0-0.3-0.135-0.3-0.3s0.135-0.3 0.3-0.3h2.431c0.165 0 0.3 0.135 0.3 0.3s-0.135 0.3-0.3 0.3z"></path>
<path stroke-linejoin="round" stroke-linecap="round" stroke-miterlimit="10" stroke-width="0.3785" d="M10.22 24.971h-0.48c-0.214 0-0.39-0.176-0.39-0.39s0.176-0.391 0.39-0.391h0.48c0.215 0 0.39 0.176 0.39 0.391s-0.176 0.39-0.39 0.39z"></path>
<path stroke-linejoin="round" stroke-linecap="round" stroke-miterlimit="10" stroke-width="0.3785" d="M22.625 12.612h-7.472c-0.139 0-0.251-0.112-0.251-0.251v-3.904c0-0.139 0.112-0.251 0.251-0.251h7.472c0.139 0 0.251 0.112 0.251 0.251v3.904c0 0.138-0.112 0.251-0.251 0.251z"></path>
<path stroke-linejoin="round" stroke-linecap="round" stroke-miterlimit="10" stroke-width="0.3785" d="M21.074 11.651h-4.37c-0.2 0-0.361-0.162-0.361-0.361v-1.761c0-0.2 0.162-0.361 0.361-0.361h4.37c0.199 0 0.361 0.162 0.361 0.361v1.761c0 0.199-0.162 0.361-0.361 0.361z"></path>
<path stroke-linejoin="round" stroke-linecap="round" stroke-miterlimit="10" stroke-width="0.3785" d="M21.34 13.781c0.319-0.132 0.613-0.327 0.862-0.576l4.947-4.947"></path>
<path stroke-linejoin="round" stroke-linecap="round" stroke-miterlimit="10" stroke-width="0.3785" d="M22.598 12.958c0 0 2.498-2.030 5.23 0.104 0 0-2.81 1.847-5.23-0.104z"></path>
<path stroke-linejoin="round" stroke-linecap="round" stroke-miterlimit="10" stroke-width="0.3785" d="M26.934 8.449c0 0 2.362-2.186 5.226-0.232 0 0-2.686 2.024-5.226 0.232z"></path>
<path stroke-linejoin="round" stroke-linecap="round" stroke-miterlimit="10" stroke-width="0.3785" d="M24.078 11.004c0 0-2.385-2.161-0.69-5.185 0 0 2.252 2.497 0.69 5.185z"></path>
</symbol>

<symbol id="church" viewBox="0 0 32 32">
<path stroke-linejoin="miter" stroke-linecap="butt" stroke-miterlimit="10" stroke-width="0.3263" d="M18.916 28.422h-4.806v-16.967l2.403-4.387 2.403 4.387v16.967z"></path>
<path stroke-linejoin="miter" stroke-linecap="butt" stroke-miterlimit="10" stroke-width="0.3263" d="M16.513 7.067v-3.489"></path>
<path stroke-linejoin="miter" stroke-linecap="butt" stroke-miterlimit="10" stroke-width="0.3263" d="M15.842 4.953h1.341"></path>
<path stroke-linejoin="miter" stroke-linecap="butt" stroke-miterlimit="10" stroke-width="0.3263" d="M17.183 19.465h-1.341v-5.623c0-0.91 0.216-1.809 0.633-2.63l0.038-0.074 0.038 0.074c0.416 0.821 0.633 1.719 0.633 2.63v5.623z"></path>
<path stroke-linejoin="miter" stroke-linecap="butt" stroke-miterlimit="10" stroke-width="0.3263" d="M17.183 28.422h-1.341v-1.664c0-0.91 0.216-1.809 0.633-2.63l0.038-0.075 0.038 0.075c0.416 0.82 0.633 1.719 0.633 2.63v1.664z"></path>
<path stroke-linejoin="miter" stroke-linecap="butt" stroke-miterlimit="10" stroke-width="0.3263" d="M16.513 23.162c-0.37 0-0.671-0.284-0.671-0.634v-1.092c0-0.35 0.3-0.634 0.671-0.634s0.67 0.284 0.67 0.634v1.092c0 0.35-0.3 0.634-0.67 0.634z"></path>
<path stroke-linejoin="miter" stroke-linecap="butt" stroke-miterlimit="10" stroke-width="0.3263" d="M21.619 23.498v-0.949c0-0.351-0.3-0.634-0.671-0.634s-0.67 0.284-0.67 0.634v0.949h1.341z"></path>
<path stroke-linejoin="miter" stroke-linecap="butt" stroke-miterlimit="10" stroke-width="0.3263" d="M20.582 28.422h-1.666v-9.791h0.273c2.311 0 4.185 1.772 4.185 3.957v3.192c0 1.459-1.25 2.641-2.792 2.641z"></path>
<path stroke-linejoin="miter" stroke-linecap="butt" stroke-miterlimit="10" stroke-width="0.3263" d="M11.398 23.498v-0.949c0-0.351 0.3-0.634 0.671-0.634s0.67 0.284 0.67 0.634v0.949h-1.341z"></path>
<path stroke-linejoin="miter" stroke-linecap="butt" stroke-miterlimit="10" stroke-width="0.3263" d="M12.435 28.422h1.666v-9.791h-0.274c-2.311 0-4.185 1.772-4.185 3.957v3.192c0 1.459 1.25 2.641 2.792 2.641z"></path>
<path stroke-linejoin="round" stroke-linecap="round" stroke-miterlimit="10" stroke-width="0.3263" d="M22.461 20.013c0.189-0.218 0.333-0.471 0.421-0.746l1.748-5.459"></path>
<path stroke-linejoin="round" stroke-linecap="round" stroke-miterlimit="10" stroke-width="0.3263" d="M23.082 18.937c0 0 1.073-2.42 4.018-1.937 0 0-1.385 2.409-4.018 1.937z"></path>
<path stroke-linejoin="round" stroke-linecap="round" stroke-miterlimit="10" stroke-width="0.3263" d="M24.544 14.029c0 0 0.907-2.48 3.878-2.177 0 0-1.218 2.489-3.878 2.177z"></path>
<path stroke-linejoin="round" stroke-linecap="round" stroke-miterlimit="10" stroke-width="0.3263" d="M23.413 16.964c0 0-2.692-0.636-2.634-3.462 0 0 2.728 0.929 2.634 3.462z"></path>
<path stroke-linejoin="round" stroke-linecap="round" stroke-miterlimit="10" stroke-width="0.3263" d="M9.963 27.094c-0.2-0.208-0.357-0.453-0.461-0.723l-2.052-5.36"></path>
<path stroke-linejoin="round" stroke-linecap="round" stroke-miterlimit="10" stroke-width="0.3263" d="M9.284 26.053c0 0-1.205-2.36-4.095-1.726 0 0 1.513 2.334 4.095 1.726z"></path>
<path stroke-linejoin="round" stroke-linecap="round" stroke-miterlimit="10" stroke-width="0.3263" d="M7.548 21.227c0 0-1.044-2.429-3.97-1.972 0 0 1.353 2.421 3.97 1.972z"></path>
</symbol>

<symbol id="glasses" viewBox="0 0 32 32">
<path stroke-linejoin="miter" stroke-linecap="butt" stroke-miterlimit="10" stroke-width="0.3795" d="M11.442 13.059c0.763-0.451 1.422-0.474 2.023-0.294l1.098-7.004-5.672-0.853-0.975 6.222c0.242-0.104 0.481-0.179 0.672-0.239 1.84-0.419 1.254 3.318 2.854 2.168z"></path>
<path stroke-linejoin="miter" stroke-linecap="butt" stroke-miterlimit="10" stroke-width="0.3795" d="M13.243 14.186l0.222-1.421c-0.601-0.181-1.259-0.157-2.023 0.294-1.599 1.15-1.014-2.587-2.854-2.168-0.191 0.060-0.43 0.136-0.672 0.239l-0.345 2.203c-0.222 1.421 0.683 2.754 2.061 3.131l-1.135 7.244c-1.156-0.137-2.075-0.056-2.115 0.203-0.045 0.285 0.984 0.676 2.298 0.873s2.414 0.127 2.459-0.158c0.041-0.259-0.811-0.606-1.955-0.816l1.135-7.243c1.43 0.045 2.702-0.961 2.925-2.381z"></path>
<path stroke-linejoin="miter" stroke-linecap="butt" stroke-miterlimit="10" stroke-width="0.3795" d="M19.617 15.282c0.558-0.681 1.167-0.926 1.795-0.96l-1.44-6.944-5.623 1.119 1.279 6.169c0.191-0.179 0.389-0.331 0.546-0.452 1.579-1.016 2.347 2.689 3.443 1.068z"></path>
<path stroke-linejoin="miter" stroke-linecap="butt" stroke-miterlimit="10" stroke-width="0.3795" d="M21.704 15.73l-0.292-1.408c-0.628 0.034-1.237 0.279-1.795 0.96-1.095 1.621-1.864-2.084-3.443-1.068-0.157 0.12-0.355 0.273-0.546 0.452l0.453 2.184c0.292 1.408 1.612 2.353 3.038 2.241l1.489 7.181c-1.133 0.263-1.966 0.649-1.913 0.907 0.058 0.282 1.161 0.301 2.464 0.042s2.311-0.698 2.252-0.981c-0.053-0.257-0.974-0.295-2.122-0.104l-1.489-7.181c1.358-0.442 2.197-1.816 1.905-3.225z"></path>
<path stroke-linejoin="round" stroke-linecap="round" stroke-miterlimit="10" stroke-width="0.3795" d="M21.412 25.846c0.314-0.167 0.595-0.394 0.824-0.671l4.551-5.507"></path>
<path stroke-linejoin="round" stroke-linecap="round" stroke-miterlimit="10" stroke-width="0.3795" d="M22.617 24.884c0 0 2.349-2.308 5.388-0.449 0 0-2.69 2.159-5.388 0.449z"></path>
<path stroke-linejoin="round" stroke-linecap="round" stroke-miterlimit="10" stroke-width="0.3795" d="M26.586 19.883c0 0 2.193-2.452 5.348-0.787 0 0-2.543 2.323-5.348 0.787z"></path>
<path stroke-linejoin="round" stroke-linecap="round" stroke-miterlimit="10" stroke-width="0.3795" d="M23.927 22.759c0 0-2.686-1.925-1.27-5.151 0 0 2.585 2.278 1.27 5.151z"></path>
</symbol>

<symbol id="group" viewBox="0 0 457 32">
<path d="M199.573 13.856h-172.64c-0.621 0-1.124 0.503-1.124 1.123s0.503 1.123 1.124 1.123h172.64c0.62 0 1.123-0.503 1.123-1.123s-0.503-1.123-1.123-1.123z"></path>
<path d="M19.11 4.201c6.823 0 13.189 1.829 16.504 3.724 4.258 2.433 23.296 14.156 23.488 14.275 0.456 0.282 0.598 0.88 0.317 1.336-0.28 0.456-0.877 0.6-1.335 0.317-0.191-0.117-19.202-11.825-23.434-14.243-4.456-2.547-14.83-4.968-23.939-2.362-5.222 1.492-7.321 4.277-8.162 6.351-0.992 2.446-0.764 5.333 0.609 7.717 2.72 4.723 9.835 6.648 18.127 4.902 5.019-1.057 7.86-4.278 7.985-6.771 0.094-1.893-1.305-3.398-3.94-4.234l-0.248-0.076 0.504-1.876-0.279 0.931 0.329-0.915 0.283 0.086c3.5 1.111 5.428 3.364 5.288 6.18-0.192 3.847-4.197 7.453-9.524 8.574-9.128 1.92-17.061-0.366-20.208-5.833-1.67-2.899-1.941-6.419-0.727-9.416 1.003-2.474 3.452-5.781 9.428-7.488 2.92-0.835 5.968-1.179 8.931-1.179z"></path>
<path d="M40.636 10.005c0.191 0.119 19.23 11.844 23.487 14.276 4.756 2.717 15.788 5.299 25.436 2.544 5.975-1.707 8.425-5.015 9.428-7.489 1.214-2.997 0.943-6.518-0.728-9.416-2.405-4.181-7.613-6.503-14.015-6.503-1.967 0-4.046 0.219-6.192 0.671-1.282 0.268-2.502 0.682-3.628 1.227-3.809 1.846-6.123 5.004-5.894 8.047 0.013 0.174 0.041 0.369 0.080 0.571 0.525-0.395 1.149-0.693 1.862-0.873-0.067-2.169 1.83-4.56 4.798-5.998 0.982-0.477 2.054-0.837 3.181-1.075 8.293-1.743 15.406 0.177 18.126 4.901 1.374 2.385 1.601 5.271 0.61 7.718-0.841 2.074-2.939 4.859-8.162 6.351-9.108 2.604-19.482 0.184-23.94-2.362-4.232-2.418-23.242-14.125-23.433-14.244-0.454-0.28-1.053-0.138-1.336 0.317-0.28 0.456-0.139 1.055 0.318 1.336z"></path>
<path d="M96.057 10.005c0.191 0.119 19.23 11.844 23.487 14.276 4.756 2.717 15.789 5.299 25.436 2.544 5.975-1.707 8.426-5.015 9.429-7.489 1.214-2.997 0.943-6.518-0.728-9.416-2.405-4.181-7.613-6.503-14.016-6.503-1.966 0-4.045 0.219-6.191 0.671-1.282 0.268-2.502 0.682-3.628 1.227-3.809 1.846-6.123 5.004-5.894 8.047 0.013 0.174 0.041 0.369 0.079 0.571 0.525-0.395 1.15-0.693 1.863-0.873-0.067-2.169 1.83-4.56 4.798-5.998 0.982-0.477 2.054-0.837 3.181-1.075 8.293-1.743 15.406 0.177 18.126 4.901 1.374 2.385 1.601 5.271 0.61 7.718-0.84 2.074-2.939 4.859-8.161 6.351-9.108 2.604-19.482 0.184-23.94-2.362-4.232-2.418-23.242-14.125-23.433-14.244-0.454-0.28-1.053-0.138-1.336 0.317-0.28 0.456-0.139 1.055 0.318 1.336z"></path>
<path d="M28.808 15.366l-3.581-3.581-3.581 3.581 3.581 3.581 3.581-3.581z"></path>
<path d="M22.477 15.366l-3.581-3.581-3.581 3.581 3.581 3.581 3.581-3.581z"></path>
<path d="M256.759 13.856h172.642c0.62 0 1.123 0.503 1.123 1.123s-0.503 1.123-1.123 1.123h-172.642c-0.619 0-1.123-0.503-1.123-1.123s0.504-1.123 1.123-1.123z"></path>
<path d="M437.224 4.201c-6.824 0-13.189 1.829-16.503 3.724-4.259 2.433-23.296 14.156-23.49 14.275-0.456 0.282-0.597 0.88-0.317 1.336s0.878 0.6 1.336 0.317c0.19-0.117 19.202-11.825 23.433-14.243 4.457-2.547 14.831-4.968 23.939-2.362 5.222 1.492 7.32 4.277 8.162 6.351 0.992 2.446 0.763 5.333-0.61 7.717-2.72 4.723-9.835 6.648-18.127 4.902-5.019-1.057-7.86-4.278-7.985-6.771-0.094-1.893 1.304-3.398 3.941-4.234l0.247-0.076-0.504-1.876 0.279 0.931-0.329-0.915-0.283 0.086c-3.5 1.111-5.428 3.364-5.288 6.18 0.192 3.847 4.197 7.453 9.524 8.574 9.128 1.92 17.062-0.366 20.209-5.833 1.67-2.899 1.94-6.419 0.727-9.416-1.004-2.474-3.453-5.781-9.429-7.488-2.92-0.835-5.969-1.179-8.931-1.179z"></path>
<path d="M415.697 10.005c-0.19 0.119-19.23 11.844-23.486 14.276-4.756 2.717-15.788 5.299-25.437 2.544-5.975-1.707-8.425-5.015-9.428-7.489-1.214-2.997-0.943-6.518 0.728-9.416 2.405-4.181 7.613-6.503 14.014-6.503 1.967 0 4.046 0.219 6.191 0.671 1.283 0.268 2.502 0.682 3.628 1.227 3.81 1.846 6.124 5.004 5.894 8.047-0.012 0.174-0.041 0.369-0.079 0.571-0.526-0.395-1.149-0.693-1.862-0.873 0.067-2.169-1.83-4.56-4.798-5.998-0.983-0.477-2.054-0.837-3.182-1.075-8.293-1.743-15.406 0.177-18.126 4.901-1.373 2.385-1.602 5.271-0.61 7.718 0.84 2.074 2.939 4.859 8.162 6.351 9.108 2.604 19.482 0.184 23.939-2.362 4.232-2.418 23.243-14.125 23.433-14.244 0.454-0.28 1.053-0.138 1.336 0.317 0.28 0.456 0.139 1.055-0.318 1.336z"></path>
<path d="M360.277 10.005c-0.192 0.119-19.23 11.844-23.488 14.276-4.756 2.717-15.788 5.299-25.435 2.544-5.975-1.707-8.425-5.015-9.428-7.489-1.214-2.997-0.945-6.518 0.727-9.416 2.405-4.181 7.613-6.503 14.014-6.503 1.967 0 4.047 0.219 6.193 0.671 1.282 0.268 2.502 0.682 3.628 1.227 3.81 1.846 6.123 5.004 5.894 8.047-0.014 0.174-0.043 0.369-0.081 0.571-0.524-0.395-1.149-0.693-1.862-0.873 0.067-2.169-1.83-4.56-4.798-5.998-0.981-0.477-2.053-0.837-3.18-1.075-8.293-1.743-15.407 0.177-18.126 4.901-1.374 2.385-1.603 5.271-0.611 7.718 0.841 2.074 2.939 4.859 8.162 6.351 9.108 2.604 19.482 0.184 23.941-2.362 4.23-2.418 23.241-14.125 23.433-14.244 0.453-0.28 1.051-0.138 1.335 0.317 0.28 0.456 0.14 1.055-0.317 1.336z"></path>
<path d="M431.106 18.946l3.582-3.581-3.582-3.581-3.581 3.581 3.581 3.581z"></path>
<path d="M437.437 18.946l3.582-3.581-3.582-3.581-3.581 3.581 3.581 3.581z"></path>
<path d="M226.664 0.696l-12.989 12.989c-0.928 0.928-0.928 2.433 0 3.361l12.989 12.989c0.928 0.928 2.432 0.928 3.36 0l12.989-12.989c0.928-0.928 0.928-2.433 0-3.361l-12.989-12.989c-0.928-0.928-2.432-0.928-3.36 0z"></path>
</symbol>

<symbol id="company_logo" viewBox="0 0 36 32">
<path fill="#b09a0c" style="fill: var(--color1, #b09a0c)" d="M26.76 4.094c-0.232-0.308-0.648-0.861-0.958-0.911-0.768 1.597-0.986 3.511-0.402 5.201 0.281 0.812 0.721 1.491 1.172 2.187 0.132 0.203 0.264 0.408 0.394 0.617-0.415 2.027-1.591 3.851-2.898 5.425-0.348 0.42-0.717 0.861-1.123 1.225 0.706-1.276 0.887-2.729 0.483-4.139-0.319-1.113-1.034-2.101-2.064-2.657-0.925-0.499-2.078-0.581-3.077-0.27-1.145 0.357-2.046 1.169-2.597 2.225-0.178 0.341-0.311 0.698-0.416 1.068-0.539-1.107-1.318-2.018-2.516-2.425-0.942-0.32-2.007-0.283-2.903 0.16-0.839 0.424-1.476 1.164-1.769 2.057-0.405 1.204-0.219 2.498 0.345 3.619 0.824 1.638 2.423 3.048 3.891 4.342 0.389 0.343 0.77 0.679 1.124 1.008l1.54 1.436c0.073 0.069 0.147 0.14 0.222 0.213 0.223 0.217 0.453 0.44 0.705 0.607 0.111-0.028 0.204-0.112 0.29-0.191 0.012-0.011 0.023-0.021 0.035-0.031 0.784-0.707 1.541-1.449 2.297-2.19 0.343-0.336 0.685-0.672 1.030-1.004 0.417-0.402 0.84-0.8 1.262-1.197 0.596-0.561 1.193-1.121 1.774-1.696 0.441-0.436 0.869-0.885 1.282-1.346 0.75-0.835 1.425-1.735 2.017-2.69 0.204-0.337 0.376-0.687 0.547-1.036 0.127-0.259 0.254-0.518 0.394-0.771 0.437-0.791 1.193-1.441 1.916-1.962 2.079 0.409 4.068 0.574 5.912-0.67 0.379-0.256 1.496-1.109 1.634-1.551-0.040-0.104-0.093-0.13-0.192-0.177-0.215-0.102-0.456-0.167-0.688-0.23-0.037-0.010-0.074-0.020-0.11-0.030-1.274-0.352-2.629-0.409-3.876 0.079-0.802 0.314-1.649 0.838-2.231 1.481-0.098 0.108-0.188 0.225-0.278 0.342-0.122 0.158-0.244 0.316-0.385 0.453-0.23 0.223-0.477 0.432-0.725 0.642-0.215 0.182-0.431 0.365-0.636 0.557 0.064-0.485 0.211-0.803 0.37-1.146 0.092-0.199 0.189-0.406 0.275-0.659 0.715-2.103 0.367-4.103-0.987-5.859-0.023-0.029-0.048-0.063-0.077-0.101zM19.314 11.073c0.090-0.007 0.18-0.006 0.27-0.005 0.922 0.016 1.799 0.403 2.432 1.074 0.799 0.835 1.182 2.032 1.15 3.176-0.027 0.919-0.321 1.795-0.797 2.576-0.708 1.161-1.759 2.134-2.772 3.073-0.235 0.218-0.469 0.434-0.696 0.651l-2.979 2.86c-0.947-0.915-1.929-1.801-2.908-2.685l-0.003-0.003c-0.261-0.236-0.523-0.472-0.783-0.708l-0.008-0.007c-1.37-1.201-2.985-2.617-3.615-4.369-0.357-0.994-0.372-2.096 0.086-3.060 0.347-0.742 0.98-1.311 1.755-1.576 0.837-0.287 1.751-0.191 2.539 0.197 0.858 0.423 1.529 1.198 1.883 2.081 0.063 0.158 0.112 0.321 0.161 0.484 0.033 0.109 0.066 0.218 0.103 0.326 0.093 0.075 0.119 0.082 0.238 0.103 0.077-0.050 0.259-0.621 0.415-1.112 0.094-0.295 0.179-0.562 0.226-0.67 0.169-0.389 0.394-0.751 0.667-1.076 0.69-0.819 1.581-1.237 2.637-1.329zM21.917 12.643c-1.306 0.017-2.613 0.021-3.919 0.011-0.291 0.793-0.658 1.572-1.021 2.345-0.134 0.285-0.268 0.57-0.397 0.854-0.925 2.030-1.861 4.055-2.807 6.075 0.199 0.174 0.396 0.351 0.589 0.53 0.529-1.255 1.112-2.488 1.695-3.72 0.599-1.266 1.198-2.533 1.738-3.823l0.063-0.099c0.057 0.059 0.059 0.149 0.061 0.233 0 0.011 0.001 0.023 0.001 0.034 0.019 0.496 0.012 0.997 0.006 1.497-0.003 0.253-0.006 0.505-0.006 0.756l0.008 4.608c0.215-0.205 0.43-0.413 0.645-0.622 0.574-0.557 1.15-1.116 1.753-1.632 0.016-1.043 0.019-2.086 0.010-3.129-0.001-0.16-0.004-0.322-0.008-0.486-0.012-0.542-0.024-1.099 0.065-1.62 0.059-0.342 0.163-0.701 0.417-0.95 0.361-0.356 0.893-0.429 1.378-0.453-0.028-0.043-0.056-0.085-0.083-0.128-0.061-0.094-0.122-0.189-0.186-0.281zM27.402 5.803c0.628 1.439 0.558 2.97-0.005 4.417 0.006-1.077-0.055-2.096-0.344-3.142-0.005-0.017-0.010-0.037-0.016-0.059-0.077-0.285-0.254-0.937-0.455-1.052l-0.070 0.072c0.404 1.554 0.573 3 0.496 4.608-0.33-0.503-0.658-1.005-0.926-1.545-0.927-1.869-0.795-3.445-0.151-5.376 0.521 0.318 1.223 1.508 1.472 2.077zM32.907 8.405c1.007-0.068 1.975 0.114 2.938 0.395-0.409 0.464-0.904 0.888-1.417 1.232-1.586 1.064-3.368 1.010-5.17 0.653 0.416-0.229 0.866-0.409 1.307-0.583 0.66-0.247 1.343-0.428 2.028-0.586 0.105-0.024 0.213-0.041 0.322-0.059 0.155-0.025 0.311-0.050 0.459-0.095 0.070-0.022 0.124-0.045 0.175-0.1 0.030-0.032 0.030-0.035 0.026-0.063-0.001-0.008-0.003-0.017-0.004-0.030-0.002-0.001-0.004-0.002-0.006-0.004s-0.003-0.002-0.005-0.003c-0.006-0.004-0.013-0.009-0.020-0.012-0.097-0.042-0.28-0.019-0.421-0.001-0.039 0.005-0.075 0.010-0.106 0.012-1.279 0.113-2.426 0.532-3.602 1.013 0.959-0.989 2.122-1.616 3.496-1.769z"></path>
<path fill="#fff" style="fill: var(--color2, #fff)" d="M21.918 12.643c-1.306 0.017-2.613 0.021-3.919 0.011-0.291 0.793-0.658 1.572-1.021 2.345-0.134 0.285-0.268 0.57-0.397 0.854-0.925 2.030-1.861 4.055-2.807 6.075 0.199 0.174 0.396 0.351 0.589 0.53 0.529-1.255 1.112-2.487 1.695-3.72 0.599-1.266 1.198-2.533 1.738-3.823l0.063-0.099c0.057 0.059 0.059 0.149 0.061 0.232 0 0.011 0.001 0.023 0.001 0.034 0.019 0.496 0.012 0.997 0.006 1.497-0.003 0.253-0.006 0.505-0.006 0.757l0.008 4.608c0.215-0.205 0.43-0.413 0.645-0.622 0.574-0.556 1.15-1.116 1.753-1.632 0.016-1.043 0.019-2.086 0.010-3.129-0.001-0.16-0.004-0.322-0.008-0.486-0.012-0.542-0.024-1.099 0.065-1.62 0.059-0.342 0.163-0.701 0.417-0.95 0.361-0.356 0.893-0.429 1.378-0.453-0.028-0.043-0.056-0.085-0.083-0.128-0.061-0.094-0.122-0.189-0.186-0.281z"></path>
<path fill="#000" style="fill: var(--color3, #000)" d="M17.997 12.654c1.306 0.009 2.613 0.006 3.919-0.011 0.093 0.134 0.18 0.273 0.269 0.409-0.484 0.024-1.016 0.096-1.378 0.453-0.254 0.25-0.358 0.608-0.417 0.95-0.117 0.678-0.061 1.418-0.058 2.106 0.009 1.043 0.005 2.086-0.010 3.129-0.829 0.709-1.608 1.501-2.398 2.253l-0.008-4.608c0-0.748 0.029-1.506 0.001-2.253-0.003-0.092 0.003-0.199-0.063-0.266l-0.062 0.099c-1.066 2.546-2.36 4.999-3.433 7.543-0.194-0.18-0.39-0.356-0.589-0.53 0.946-2.020 1.882-4.045 2.807-6.075 0.48-1.053 1.020-2.113 1.419-3.199z"></path>
<path fill="#000" style="fill: var(--color3, #000)" d="M27.363 12.65c0.646 0.025 5.034-0.042 5.19 0.037 0.010 0.051 0.024 0.109 0.025 0.162 0.001 0.149-0.011 0.182-0.16 0.197-1.041 0.106-1.735 0.295-2.562 0.989-0.859 0.72-1.64 1.573-2.429 2.369l-3.515 3.519c1.715 1.918 3.381 3.876 5.081 5.808 0.927 1.054 2.146 2.667 3.27 3.41 0.367 0.243 0.797 0.462 1.226 0.569 0.322 0.080 0.78 0.085 1.065 0.25 0.001 0.113 0.026 0.203-0.043 0.296-0.612 0.050-1.25 0.006-1.865-0.002-1.055-0.022-2.11-0.027-3.165-0.015-0.375 0.005-2.071 0.097-2.303 0.026l-0.029-0.135c0.114-0.341 0.698-0.271 0.981-0.476 0.142-0.103 0.224-0.24 0.24-0.415 0.024-0.254-0.073-0.499-0.198-0.715-0.319-0.554-0.805-1.047-1.22-1.534l-1.975-2.314c-0.898-1.041-1.785-2.094-2.712-3.109-0.638 0.644-1.298 1.263-1.931 1.912l0.002 2.986c0.001 0.584-0.030 1.195 0.033 1.776 0.138 1.253 0.675 1.538 1.859 1.628 0.204 0.016 0.407 0.008 0.574 0.14 0.043 0.099 0.049 0.12 0.038 0.227-0.105 0.051-0.235 0.054-0.35 0.055-1.454 0.020-2.914-0.024-4.369-0.016-0.623 0.003-2.011 0.084-2.57-0.007-0.010-0.049-0.025-0.102-0.026-0.153-0.001-0.026 0.004-0.16 0.018-0.179 0.019-0.026 1.46-0.049 1.927-0.527 0.205-0.21 0.311-0.516 0.366-0.799 0.132-0.677 0.081-1.412 0.078-2.099-0.006-0.875-0.007-1.751-0.002-2.626 0.768-0.794 1.602-1.541 2.409-2.297l0.013 0.904c0.662-0.698 1.381-1.354 2.066-2.032l3.544-3.555c0.69-0.694 1.459-1.379 2.082-2.131 0.165-0.2 0.371-0.463 0.406-0.724 0.029-0.216 0.004-0.431-0.138-0.603-0.247-0.299-0.669-0.341-1.027-0.383l0.099-0.413z"></path>
<path fill="#000" style="fill: var(--color3, #000)" d="M0.294 12.661c1.579 0.010 3.159 0.008 4.738-0.008 0.634 1.521 1.353 3.013 2.032 4.515l4.419 9.754c0.562-1.239 1.14-2.47 1.735-3.693 0.184 0.159 0.359 0.332 0.536 0.499-0.697 1.496-1.385 2.997-2.063 4.502-0.267 0.585-0.608 1.509-0.954 2.028-0.096 0.017-0.186 0.044-0.281 0.015-0.516-0.906-0.978-2.101-1.419-3.069l-2.776-6.099c-0.936-1.92-1.817-3.878-2.696-5.825 0.060 2.935 0.007 5.885 0.008 8.822 0 1.229-0.114 3.31 0.151 4.441 0.217 0.925 0.834 1.255 1.725 1.321 0.224 0.017 0.491 0.002 0.687 0.126 0.056 0.1 0.059 0.119 0.057 0.234-0.010 0.006-0.020 0.014-0.030 0.019-0.096 0.047-0.228 0.047-0.334 0.049-1.187 0.022-2.381-0.006-3.569-0.005-0.439 0-1.543 0.069-1.919-0.027-0.035-0.080-0.041-0.112-0.023-0.197 0.202-0.269 1.25-0.214 1.678-0.476 0.409-0.251 0.62-0.652 0.731-1.105 0.237-0.971 0.133-2.103 0.131-3.102l-0.009-4.138-0.002-4.139c-0.001-0.766 0.037-1.553-0.025-2.316-0.027-0.332-0.097-0.633-0.277-0.919-0.524-0.834-1.381-0.67-2.194-0.857-0.072-0.102-0.053-0.223-0.057-0.347z"></path>
</symbol>

<symbol id="cube" viewBox="0 0 32 32">
<path d="M27.64 9.493c0.235 0.405 0.359 0.865 0.36 1.333v10.333c-0.004 0.468-0.128 0.927-0.36 1.333l-0.2 0.333c-0.228 0.408-0.565 0.745-0.973 0.973l-8.947 5.173c-0.405 0.235-0.865 0.359-1.333 0.36h-0.373c-0.469 0.004-0.93-0.12-1.333-0.36l-8.96-5.16c-0.399-0.24-0.734-0.574-0.973-0.973l-0.187-0.333c-0.235-0.405-0.359-0.865-0.36-1.333v-10.333c0.001-0.468 0.125-0.928 0.36-1.333l0.187-0.333c0.234-0.404 0.569-0.74 0.973-0.973l8.947-5.173c0.405-0.235 0.865-0.359 1.333-0.36h0.387c0.468 0.001 0.928 0.125 1.333 0.36l8.947 5.16c0.406 0.235 0.746 0.57 0.987 0.973l0.187 0.333zM15.8 5.333l-7.8 4.507 8 4.613 8-4.613-7.813-4.507h-0.387zM17.333 26l7.8-4.507 0.2-0.333v-9.013l-8 4.627v9.227z"></path>
</symbol>

<symbol id="circle" viewBox="0 0 32 32">
<path d="M14.792 0c-8.165 0-14.792 6.625-14.792 14.792s6.625 14.792 14.792 14.792c8.167 0 14.792-6.625 14.792-14.792 0-8.165-6.625-14.792-14.792-14.792zM14.792 24.387c-5.299 0-9.595-4.296-9.595-9.595s4.296-9.595 9.595-9.595c5.299 0 9.595 4.296 9.595 9.595s-4.296 9.595-9.595 9.595z"></path>
</symbol>
<symbol id="x" viewBox="0 0 36 32">
<path d="M28.352 0h5.52l-12.060 13.555 14.188 18.445h-11.109l-8.701-11.187-9.956 11.187h-5.524l12.899-14.498-13.61-17.502h11.391l7.865 10.225 9.096-10.225zM26.415 28.751h3.059l-19.745-25.672h-3.282l19.968 25.672z"></path>
</symbol>

<symbol id="arrow-left" viewBox="0 0 32 32">
<path stroke-linejoin="miter" stroke-linecap="butt" stroke-miterlimit="4" stroke-width="2" d="M15.643 1c0.171 0 0.318 0.053 0.482 0.217 0.165 0.172 0.217 0.326 0.217 0.498-0 0.174-0.053 0.322-0.217 0.486l-12.723 12.723h26.82c0.243 0 0.393 0.071 0.522 0.197 0.124 0.123 0.193 0.266 0.193 0.506s-0.069 0.383-0.193 0.506c-0.128 0.127-0.279 0.197-0.522 0.197h-26.82l12.711 12.709c0.165 0.165 0.221 0.319 0.223 0.502v0.002c0.001 0.133-0.028 0.25-0.111 0.369l-0.104 0.123c-0.16 0.162-0.306 0.214-0.484 0.213-0.189-0.002-0.346-0.062-0.512-0.227l-13.896-13.896c-0.106-0.108-0.158-0.193-0.182-0.25v-0.002c-0.030-0.073-0.047-0.153-0.047-0.248s0.017-0.173 0.047-0.244v-0.002c0.024-0.057 0.075-0.142 0.182-0.25l13.9-13.9c0.181-0.174 0.34-0.229 0.514-0.229z"></path>
</symbol>

<symbol id="arrow-right" viewBox="0 0 32 32">
<path stroke-linejoin="miter" stroke-linecap="butt" stroke-miterlimit="4" stroke-width="2" d="M16.289 1c0.142 0.001 0.266 0.035 0.389 0.121l0.123 0.105 13.896 13.896c0.106 0.108 0.158 0.193 0.182 0.25v0.002c0.030 0.073 0.047 0.153 0.047 0.248s-0.017 0.173-0.047 0.244v0.002c-0.024 0.057-0.075 0.142-0.182 0.25l-13.908 13.896c-0.183 0.181-0.34 0.232-0.506 0.232-0.161-0-0.306-0.049-0.473-0.221l-0.010-0.010-0.104-0.121c-0.084-0.119-0.113-0.235-0.113-0.365s0.030-0.245 0.113-0.363l0.104-0.121 12.723-12.723h-26.82c-0.244-0-0.389-0.070-0.51-0.191h-0.002c-0.122-0.122-0.191-0.268-0.191-0.512s0.070-0.39 0.191-0.512h0.002c0.121-0.121 0.266-0.191 0.51-0.191h26.82l-12.711-12.711c-0.123-0.123-0.186-0.24-0.211-0.369l-0.012-0.135c-0.002-0.18 0.050-0.327 0.211-0.488l0.002-0.002c0.16-0.161 0.307-0.214 0.486-0.213z"></path>
</symbol>

<symbol id="plus" viewBox="0 0 32 32">
<path d="M13.435 17.082h-11.618c-0.513 0-0.944-0.176-1.293-0.527s-0.524-0.784-0.524-1.3c0-0.515 0.175-0.945 0.524-1.29s0.78-0.517 1.293-0.517h11.618v-11.618c0-0.512 0.176-0.945 0.527-1.299s0.784-0.531 1.3-0.531c0.515 0 0.945 0.177 1.29 0.531s0.517 0.787 0.517 1.299v11.618h11.618c0.512 0 0.945 0.176 1.299 0.527s0.531 0.784 0.531 1.3c0 0.515-0.177 0.945-0.531 1.29s-0.787 0.517-1.299 0.517h-11.618v11.618c0 0.513-0.176 0.944-0.527 1.293s-0.784 0.524-1.3 0.524c-0.515 0-0.945-0.174-1.29-0.524s-0.517-0.78-0.517-1.293v-11.618z"></path>
</symbol>

<symbol id="cross" viewBox="0 0 32 32">
<path stroke-linejoin="miter" stroke-linecap="butt" stroke-miterlimit="4" stroke-width="2.2857" d="M27.828 1.143c0.376 0 0.609 0.111 0.792 0.295s0.294 0.416 0.295 0.79c0 0.375-0.111 0.609-0.295 0.792l-12.009 12.009 12.009 12.007c0.184 0.184 0.295 0.417 0.295 0.792s-0.111 0.609-0.295 0.792-0.417 0.295-0.792 0.295c-0.375 0-0.609-0.111-0.792-0.295l-12.007-12.009-12.009 12.009c-0.184 0.184-0.417 0.295-0.792 0.295s-0.607-0.111-0.79-0.295c-0.184-0.184-0.295-0.417-0.295-0.792s0.111-0.609 0.295-0.792l12.007-12.007-12.007-12.009c-0.184-0.184-0.295-0.417-0.295-0.792s0.111-0.607 0.295-0.79 0.415-0.294 0.79-0.295c0.375 0 0.609 0.111 0.792 0.295l12.009 12.007 12.007-12.007c0.184-0.184 0.417-0.295 0.792-0.295z"></path>
</symbol>

<symbol id="letter" viewBox="0 0 40 32">
<path stroke-linejoin="miter" stroke-linecap="butt" stroke-miterlimit="4" stroke-width="1.8824" d="M2.265 3.572v24.855h33.68v-24.109l-16.436 10.82c-0.114 0.060-0.212 0.108-0.298 0.142-0.006 0.002-0.038 0.011-0.107 0.011-0.070-0-0.101-0.009-0.107-0.011-0.086-0.034-0.185-0.082-0.3-0.142l-14.551-9.583v-0.752l14.958 9.798 18.129-11.84c0.029 0.146 0.046 0.298 0.046 0.456v24.268c0 0.605-0.211 1.119-0.68 1.586s-0.986 0.678-1.596 0.678h-31.798c-0.606 0-1.12-0.212-1.586-0.678l-0.164-0.176c-0.353-0.419-0.515-0.88-0.515-1.41v-24.268c0-0.167 0.017-0.326 0.050-0.48l1.274 0.835zM3.206 0.941h31.798c0.609 0 1.125 0.213 1.594 0.682h0.002c0.206 0.206 0.36 0.424 0.471 0.653h-35.921c0.11-0.23 0.264-0.448 0.471-0.654h0.002c0.467-0.468 0.98-0.68 1.585-0.68z"></path>
</symbol>

<symbol id="phone" viewBox="0 0 32 32">
<path stroke-linejoin="miter" stroke-linecap="butt" stroke-miterlimit="4" stroke-width="1.6842" d="M2.136 0.842h5.895c0.309 0 0.524 0.092 0.701 0.258 0.157 0.148 0.29 0.341 0.388 0.595l0.087 0.275 1.12 5.076c0.055 0.39 0.042 0.702-0.016 0.949-0.052 0.221-0.156 0.403-0.324 0.562l-0.012 0.010-4.711 4.646 0.337 0.566c0.719 1.208 1.482 2.34 2.291 3.395 0.813 1.060 1.716 2.067 2.707 3.023 1.033 1.066 2.113 2.035 3.24 2.903 1.137 0.875 2.325 1.642 3.564 2.298l0.557 0.294 4.507-4.625c0.235-0.255 0.482-0.408 0.745-0.487 0.221-0.065 0.439-0.088 0.66-0.072l0.222 0.029 4.75 1.051c0.279 0.078 0.501 0.198 0.681 0.357l0.168 0.173c0.197 0.237 0.293 0.503 0.293 0.831v5.743c0 0.399-0.125 0.688-0.367 0.928-0.247 0.244-0.538 0.367-0.928 0.367-3.158-0-6.392-0.758-9.709-2.299-3.315-1.54-6.398-3.731-9.25-6.582-2.673-2.673-4.766-5.551-6.289-8.635l-0.298-0.62c-1.544-3.32-2.304-6.553-2.304-9.704 0-0.3 0.070-0.539 0.207-0.743l0.161-0.192c0.243-0.244 0.532-0.368 0.926-0.368zM2.048 2.914c0.052 1.201 0.241 2.461 0.561 3.778 0.323 1.327 0.827 2.792 1.508 4.39l0.487 1.143 4.609-4.582-0.097-0.449-0.957-4.492-0.143-0.666h-6.005l0.038 0.878zM28.793 22.791l-5.314-1.099-0.324 0.337-4.117 4.314 1.066 0.497c1.17 0.544 2.439 0.986 3.803 1.327 1.365 0.342 2.7 0.548 4.002 0.614l0.885 0.044v-6.035z"></path>
</symbol>

<symbol id="location" viewBox="0 0 27 32">
<path stroke-linejoin="miter" stroke-linecap="butt" stroke-miterlimit="4" stroke-width="1.6" d="M13.039 0.8c3.239 0 6.085 1.127 8.569 3.413 2.438 2.243 3.68 5.256 3.68 9.128-0 1.576-0.347 3.152-1.055 4.733-0.726 1.621-1.636 3.174-2.733 4.659-1.106 1.498-2.308 2.896-3.605 4.194-1.317 1.318-2.545 2.483-3.683 3.497l-0.009 0.008-0.008 0.008c-0.145 0.137-0.312 0.236-0.508 0.3-0.234 0.076-0.454 0.111-0.661 0.111s-0.421-0.035-0.644-0.109c-0.185-0.062-0.342-0.158-0.48-0.292l-0.014-0.014-0.016-0.012c-1.144-1.013-2.374-2.178-3.691-3.495-1.297-1.298-2.498-2.696-3.605-4.194-1.096-1.485-2.006-3.037-2.728-4.658-0.705-1.581-1.050-3.158-1.050-4.734 0-3.873 1.242-6.886 3.677-9.128 2.481-2.285 5.324-3.412 8.563-3.413zM13.039 1.934c-3.096 0-5.744 1.070-7.891 3.205-2.159 2.148-3.223 4.905-3.223 8.202 0 2.271 0.95 4.734 2.717 7.366 1.768 2.633 4.393 5.559 7.852 8.777l0.539 0.501 0.544-0.494c3.541-3.212 6.193-6.141 7.925-8.786 1.726-2.635 2.651-5.098 2.652-7.364 0-3.297-1.064-6.054-3.223-8.202v-0.002c-2.147-2.134-4.795-3.203-7.891-3.203zM13.036 10.972c0.586 0 1.062 0.197 1.473 0.606 0.41 0.408 0.606 0.882 0.606 1.467s-0.197 1.060-0.605 1.467c-0.408 0.407-0.883 0.603-1.469 0.603s-1.060-0.197-1.467-0.602c-0.406-0.404-0.603-0.875-0.603-1.461 0-0.514 0.151-0.944 0.461-1.319l0.142-0.156c0.405-0.409 0.876-0.606 1.461-0.606z"></path>
</symbol>

<symbol id="burger-btn" viewBox="0 0 47 32">
<path d="M2.097 30.628c-0.592 0-1.089-0.203-1.492-0.608s-0.604-0.91-0.604-1.514c0-0.595 0.201-1.091 0.604-1.489s0.9-0.596 1.492-0.596h40.85c0.592 0 1.092 0.203 1.5 0.608s0.612 0.905 0.612 1.5c0 0.605-0.204 1.106-0.612 1.503s-0.908 0.597-1.5 0.597h-40.85zM2.097 17.41c-0.592 0-1.089-0.203-1.492-0.608s-0.604-0.905-0.604-1.5c0-0.594 0.201-1.091 0.604-1.489s0.9-0.597 1.492-0.597h40.85c0.592 0 1.092 0.203 1.5 0.608s0.612 0.905 0.612 1.5c0 0.594-0.204 1.091-0.612 1.489s-0.908 0.597-1.5 0.597h-40.85zM2.097 4.207c-0.592 0-1.089-0.202-1.492-0.607s-0.604-0.91-0.604-1.514c0-0.595 0.201-1.091 0.604-1.489s0.9-0.597 1.492-0.597h40.85c0.592 0 1.092 0.202 1.5 0.607s0.612 0.905 0.612 1.5c0 0.605-0.204 1.106-0.612 1.504s-0.908 0.596-1.5 0.596h-40.85z"></path>
</symbol>

<symbol id="facebook" viewBox="0 0 32 32">
<path d="M32 16.098c0-8.891-7.163-16.098-16-16.098s-16 7.207-16 16.098c0 8.035 5.851 14.695 13.5 15.902v-11.249h-4.063v-4.653h4.063v-3.547c0-4.035 2.389-6.263 6.043-6.263 1.751 0 3.582 0.314 3.582 0.314v3.962h-2.017c-1.988 0-2.608 1.241-2.608 2.514v3.020h4.437l-0.709 4.653h-3.728v11.249c7.649-1.208 13.5-7.867 13.5-15.902z"></path>
</symbol>
</defs>
</svg>
