<svg aria-hidden="true" style="position: absolute; width: 0; height: 0; overflow: hidden;" version="1.1" xmlns="http://www.w3.org/2000/svg" xmlns:xlink="http://www.w3.org/1999/xlink">
<defs>
<symbol id="camera" viewBox="0 0 32 32">
<path stroke-linejoin="round" stroke-linecap="round" stroke-miterlimit="10" stroke-width="0.3785" d="M17.51 12.612h2.759v1.431h-2.759v-1.431z"></path>
<path stroke-linejoin="round" stroke-linecap="round" stroke-miterlimit="10" stroke-width="0.3785" d="M13.537 20.205c0-2.618 2.122-4.74 4.74-4.74s4.74 2.122 4.74 4.74c0 2.618-2.122 4.74-4.74 4.74s-4.74-2.122-4.74-4.74z"></path>
<path stroke-linejoin="round" stroke-linecap="round" stroke-miterlimit="10" stroke-width="0.3785" d="M15.127 20.206c0-1.739 1.41-3.15 3.15-3.15s3.15 1.41 3.15 3.15c0 1.739-1.41 3.15-3.15 3.15s-3.15-1.41-3.15-3.15z"></path>
<path stroke-linejoin="round" stroke-linecap="round" stroke-miterlimit="10" stroke-width="0.3785" d="M29.217 16.391v-1.252c0-0.624-0.506-1.13-1.13-1.13h-18.63c-0.624 0-1.13 0.506-1.13 1.13v1.252"></path>
<path stroke-linejoin="round" stroke-linecap="round" stroke-miterlimit="10" stroke-width="0.3785" d="M15.41 16.391h-7.083v8.582c0 0.624 0.506 1.13 1.13 1.13h18.63c0.624 0 1.13-0.506 1.13-1.13v-8.582h-8.028"></path>
<path stroke-linejoin="round" stroke-linecap="round" stroke-miterlimit="10" stroke-width="0.3785" d="M27.867 15.368h-2.431c-0.165 0-0.3-0.135-0.3-0.3s0.135-0.3 0.3-0.3h2.431c0.165 0 0.3 0.135 0.3 0.3s-0.135 0.3-0.3 0.3z"></path>
<path stroke-linejoin="round" stroke-linecap="round" stroke-miterlimit="10" stroke-width="0.3785" d="M10.22 24.971h-0.48c-0.214 0-0.39-0.176-0.39-0.39s0.176-0.391 0.39-0.391h0.48c0.215 0 0.39 0.176 0.39 0.391s-0.176 0.39-0.39 0.39z"></path>
<path stroke-linejoin="round" stroke-linecap="round" stroke-miterlimit="10" stroke-width="0.3785" d="M22.625 12.612h-7.472c-0.139 0-0.251-0.112-0.251-0.251v-3.904c0-0.139 0.112-0.251 0.251-0.251h7.472c0.139 0 0.251 0.112 0.251 0.251v3.904c0 0.138-0.112 0.251-0.251 0.251z"></path>
<path stroke-linejoin="round" stroke-linecap="round" stroke-miterlimit="10" stroke-width="0.3785" d="M21.074 11.651h-4.37c-0.2 0-0.361-0.162-0.361-0.361v-1.761c0-0.2 0.162-0.361 0.361-0.361h4.37c0.199 0 0.361 0.162 0.361 0.361v1.761c0 0.199-0.162 0.361-0.361 0.361z"></path>
<path stroke-linejoin="round" stroke-linecap="round" stroke-miterlimit="10" stroke-width="0.3785" d="M21.34 13.781c0.319-0.132 0.613-0.327 0.862-0.576l4.947-4.947"></path>
<path stroke-linejoin="round" stroke-linecap="round" stroke-miterlimit="10" stroke-width="0.3785" d="M22.598 12.958c0 0 2.498-2.030 5.23 0.104 0 0-2.81 1.847-5.23-0.104z"></path>
<path stroke-linejoin="round" stroke-linecap="round" stroke-miterlimit="10" stroke-width="0.3785" d="M26.934 8.449c0 0 2.362-2.186 5.226-0.232 0 0-2.686 2.024-5.226 0.232z"></path>
<path stroke-linejoin="round" stroke-linecap="round" stroke-miterlimit="10" stroke-width="0.3785" d="M24.078 11.004c0 0-2.385-2.161-0.69-5.185 0 0 2.252 2.497 0.69 5.185z"></path>
</symbol>
<symbol id="church" viewBox="0 0 32 32">
<path stroke-linejoin="miter" stroke-linecap="butt" stroke-miterlimit="10" stroke-width="0.3263" d="M18.916 28.422h-4.806v-16.967l2.403-4.387 2.403 4.387v16.967z"></path>
<path stroke-linejoin="miter" stroke-linecap="butt" stroke-miterlimit="10" stroke-width="0.3263" d="M16.513 7.067v-3.489"></path>
<path stroke-linejoin="miter" stroke-linecap="butt" stroke-miterlimit="10" stroke-width="0.3263" d="M15.842 4.953h1.341"></path>
<path stroke-linejoin="miter" stroke-linecap="butt" stroke-miterlimit="10" stroke-width="0.3263" d="M17.183 19.465h-1.341v-5.623c0-0.91 0.216-1.809 0.633-2.63l0.038-0.074 0.038 0.074c0.416 0.821 0.633 1.719 0.633 2.63v5.623z"></path>
<path stroke-linejoin="miter" stroke-linecap="butt" stroke-miterlimit="10" stroke-width="0.3263" d="M17.183 28.422h-1.341v-1.664c0-0.91 0.216-1.809 0.633-2.63l0.038-0.075 0.038 0.075c0.416 0.82 0.633 1.719 0.633 2.63v1.664z"></path>
<path stroke-linejoin="miter" stroke-linecap="butt" stroke-miterlimit="10" stroke-width="0.3263" d="M16.513 23.162c-0.37 0-0.671-0.284-0.671-0.634v-1.092c0-0.35 0.3-0.634 0.671-0.634s0.67 0.284 0.67 0.634v1.092c0 0.35-0.3 0.634-0.67 0.634z"></path>
<path stroke-linejoin="miter" stroke-linecap="butt" stroke-miterlimit="10" stroke-width="0.3263" d="M21.619 23.498v-0.949c0-0.351-0.3-0.634-0.671-0.634s-0.67 0.284-0.67 0.634v0.949h1.341z"></path>
<path stroke-linejoin="miter" stroke-linecap="butt" stroke-miterlimit="10" stroke-width="0.3263" d="M20.582 28.422h-1.666v-9.791h0.273c2.311 0 4.185 1.772 4.185 3.957v3.192c0 1.459-1.25 2.641-2.792 2.641z"></path>
<path stroke-linejoin="miter" stroke-linecap="butt" stroke-miterlimit="10" stroke-width="0.3263" d="M11.398 23.498v-0.949c0-0.351 0.3-0.634 0.671-0.634s0.67 0.284 0.67 0.634v0.949h-1.341z"></path>
<path stroke-linejoin="miter" stroke-linecap="butt" stroke-miterlimit="10" stroke-width="0.3263" d="M12.435 28.422h1.666v-9.791h-0.274c-2.311 0-4.185 1.772-4.185 3.957v3.192c0 1.459 1.25 2.641 2.792 2.641z"></path>
<path stroke-linejoin="round" stroke-linecap="round" stroke-miterlimit="10" stroke-width="0.3263" d="M22.461 20.013c0.189-0.218 0.333-0.471 0.421-0.746l1.748-5.459"></path>
<path stroke-linejoin="round" stroke-linecap="round" stroke-miterlimit="10" stroke-width="0.3263" d="M23.082 18.937c0 0 1.073-2.42 4.018-1.937 0 0-1.385 2.409-4.018 1.937z"></path>
<path stroke-linejoin="round" stroke-linecap="round" stroke-miterlimit="10" stroke-width="0.3263" d="M24.544 14.029c0 0 0.907-2.48 3.878-2.177 0 0-1.218 2.489-3.878 2.177z"></path>
<path stroke-linejoin="round" stroke-linecap="round" stroke-miterlimit="10" stroke-width="0.3263" d="M23.413 16.964c0 0-2.692-0.636-2.634-3.462 0 0 2.728 0.929 2.634 3.462z"></path>
<path stroke-linejoin="round" stroke-linecap="round" stroke-miterlimit="10" stroke-width="0.3263" d="M9.963 27.094c-0.2-0.208-0.357-0.453-0.461-0.723l-2.052-5.36"></path>
<path stroke-linejoin="round" stroke-linecap="round" stroke-miterlimit="10" stroke-width="0.3263" d="M9.284 26.053c0 0-1.205-2.36-4.095-1.726 0 0 1.513 2.334 4.095 1.726z"></path>
<path stroke-linejoin="round" stroke-linecap="round" stroke-miterlimit="10" stroke-width="0.3263" d="M7.548 21.227c0 0-1.044-2.429-3.97-1.972 0 0 1.353 2.421 3.97 1.972z"></path>
</symbol>
<symbol id="glasses" viewBox="0 0 32 32">
<path stroke-linejoin="miter" stroke-linecap="butt" stroke-miterlimit="10" stroke-width="0.3795" d="M11.442 13.059c0.763-0.451 1.422-0.474 2.023-0.294l1.098-7.004-5.672-0.853-0.975 6.222c0.242-0.104 0.481-0.179 0.672-0.239 1.84-0.419 1.254 3.318 2.854 2.168z"></path>
<path stroke-linejoin="miter" stroke-linecap="butt" stroke-miterlimit="10" stroke-width="0.3795" d="M13.243 14.186l0.222-1.421c-0.601-0.181-1.259-0.157-2.023 0.294-1.599 1.15-1.014-2.587-2.854-2.168-0.191 0.060-0.43 0.136-0.672 0.239l-0.345 2.203c-0.222 1.421 0.683 2.754 2.061 3.131l-1.135 7.244c-1.156-0.137-2.075-0.056-2.115 0.203-0.045 0.285 0.984 0.676 2.298 0.873s2.414 0.127 2.459-0.158c0.041-0.259-0.811-0.606-1.955-0.816l1.135-7.243c1.43 0.045 2.702-0.961 2.925-2.381z"></path>
<path stroke-linejoin="miter" stroke-linecap="butt" stroke-miterlimit="10" stroke-width="0.3795" d="M19.617 15.282c0.558-0.681 1.167-0.926 1.795-0.96l-1.44-6.944-5.623 1.119 1.279 6.169c0.191-0.179 0.389-0.331 0.546-0.452 1.579-1.016 2.347 2.689 3.443 1.068z"></path>
<path stroke-linejoin="miter" stroke-linecap="butt" stroke-miterlimit="10" stroke-width="0.3795" d="M21.704 15.73l-0.292-1.408c-0.628 0.034-1.237 0.279-1.795 0.96-1.095 1.621-1.864-2.084-3.443-1.068-0.157 0.12-0.355 0.273-0.546 0.452l0.453 2.184c0.292 1.408 1.612 2.353 3.038 2.241l1.489 7.181c-1.133 0.263-1.966 0.649-1.913 0.907 0.058 0.282 1.161 0.301 2.464 0.042s2.311-0.698 2.252-0.981c-0.053-0.257-0.974-0.295-2.122-0.104l-1.489-7.181c1.358-0.442 2.197-1.816 1.905-3.225z"></path>
<path stroke-linejoin="round" stroke-linecap="round" stroke-miterlimit="10" stroke-width="0.3795" d="M21.412 25.846c0.314-0.167 0.595-0.394 0.824-0.671l4.551-5.507"></path>
<path stroke-linejoin="round" stroke-linecap="round" stroke-miterlimit="10" stroke-width="0.3795" d="M22.617 24.884c0 0 2.349-2.308 5.388-0.449 0 0-2.69 2.159-5.388 0.449z"></path>
<path stroke-linejoin="round" stroke-linecap="round" stroke-miterlimit="10" stroke-width="0.3795" d="M26.586 19.883c0 0 2.193-2.452 5.348-0.787 0 0-2.543 2.323-5.348 0.787z"></path>
<path stroke-linejoin="round" stroke-linecap="round" stroke-miterlimit="10" stroke-width="0.3795" d="M23.927 22.759c0 0-2.686-1.925-1.27-5.151 0 0 2.585 2.278 1.27 5.151z"></path>
</symbol>
<symbol id="group" viewBox="0 0 457 32">
<path d="M199.573 13.856h-172.64c-0.621 0-1.124 0.503-1.124 1.123s0.503 1.123 1.124 1.123h172.64c0.62 0 1.123-0.503 1.123-1.123s-0.503-1.123-1.123-1.123z"></path>
<path d="M19.11 4.201c6.823 0 13.189 1.829 16.504 3.724 4.258 2.433 23.296 14.156 23.488 14.275 0.456 0.282 0.598 0.88 0.317 1.336-0.28 0.456-0.877 0.6-1.335 0.317-0.191-0.117-19.202-11.825-23.434-14.243-4.456-2.547-14.83-4.968-23.939-2.362-5.222 1.492-7.321 4.277-8.162 6.351-0.992 2.446-0.764 5.333 0.609 7.717 2.72 4.723 9.835 6.648 18.127 4.902 5.019-1.057 7.86-4.278 7.985-6.771 0.094-1.893-1.305-3.398-3.94-4.234l-0.248-0.076 0.504-1.876-0.279 0.931 0.329-0.915 0.283 0.086c3.5 1.111 5.428 3.364 5.288 6.18-0.192 3.847-4.197 7.453-9.524 8.574-9.128 1.92-17.061-0.366-20.208-5.833-1.67-2.899-1.941-6.419-0.727-9.416 1.003-2.474 3.452-5.781 9.428-7.488 2.92-0.835 5.968-1.179 8.931-1.179z"></path>
<path d="M40.636 10.005c0.191 0.119 19.23 11.844 23.487 14.276 4.756 2.717 15.788 5.299 25.436 2.544 5.975-1.707 8.425-5.015 9.428-7.489 1.214-2.997 0.943-6.518-0.728-9.416-2.405-4.181-7.613-6.503-14.015-6.503-1.967 0-4.046 0.219-6.192 0.671-1.282 0.268-2.502 0.682-3.628 1.227-3.809 1.846-6.123 5.004-5.894 8.047 0.013 0.174 0.041 0.369 0.080 0.571 0.525-0.395 1.149-0.693 1.862-0.873-0.067-2.169 1.83-4.56 4.798-5.998 0.982-0.477 2.054-0.837 3.181-1.075 8.293-1.743 15.406 0.177 18.126 4.901 1.374 2.385 1.601 5.271 0.61 7.718-0.841 2.074-2.939 4.859-8.162 6.351-9.108 2.604-19.482 0.184-23.94-2.362-4.232-2.418-23.242-14.125-23.433-14.244-0.454-0.28-1.053-0.138-1.336 0.317-0.28 0.456-0.139 1.055 0.318 1.336z"></path>
<path d="M96.057 10.005c0.191 0.119 19.23 11.844 23.487 14.276 4.756 2.717 15.789 5.299 25.436 2.544 5.975-1.707 8.426-5.015 9.429-7.489 1.214-2.997 0.943-6.518-0.728-9.416-2.405-4.181-7.613-6.503-14.016-6.503-1.966 0-4.045 0.219-6.191 0.671-1.282 0.268-2.502 0.682-3.628 1.227-3.809 1.846-6.123 5.004-5.894 8.047 0.013 0.174 0.041 0.369 0.079 0.571 0.525-0.395 1.15-0.693 1.863-0.873-0.067-2.169 1.83-4.56 4.798-5.998 0.982-0.477 2.054-0.837 3.181-1.075 8.293-1.743 15.406 0.177 18.126 4.901 1.374 2.385 1.601 5.271 0.61 7.718-0.84 2.074-2.939 4.859-8.161 6.351-9.108 2.604-19.482 0.184-23.94-2.362-4.232-2.418-23.242-14.125-23.433-14.244-0.454-0.28-1.053-0.138-1.336 0.317-0.28 0.456-0.139 1.055 0.318 1.336z"></path>
<path d="M28.808 15.366l-3.581-3.581-3.581 3.581 3.581 3.581 3.581-3.581z"></path>
<path d="M22.477 15.366l-3.581-3.581-3.581 3.581 3.581 3.581 3.581-3.581z"></path>
<path d="M256.759 13.856h172.642c0.62 0 1.123 0.503 1.123 1.123s-0.503 1.123-1.123 1.123h-172.642c-0.619 0-1.123-0.503-1.123-1.123s0.504-1.123 1.123-1.123z"></path>
<path d="M437.224 4.201c-6.824 0-13.189 1.829-16.503 3.724-4.259 2.433-23.296 14.156-23.49 14.275-0.456 0.282-0.597 0.88-0.317 1.336s0.878 0.6 1.336 0.317c0.19-0.117 19.202-11.825 23.433-14.243 4.457-2.547 14.831-4.968 23.939-2.362 5.222 1.492 7.32 4.277 8.162 6.351 0.992 2.446 0.763 5.333-0.61 7.717-2.72 4.723-9.835 6.648-18.127 4.902-5.019-1.057-7.86-4.278-7.985-6.771-0.094-1.893 1.304-3.398 3.941-4.234l0.247-0.076-0.504-1.876 0.279 0.931-0.329-0.915-0.283 0.086c-3.5 1.111-5.428 3.364-5.288 6.18 0.192 3.847 4.197 7.453 9.524 8.574 9.128 1.92 17.062-0.366 20.209-5.833 1.67-2.899 1.94-6.419 0.727-9.416-1.004-2.474-3.453-5.781-9.429-7.488-2.92-0.835-5.969-1.179-8.931-1.179z"></path>
<path d="M415.697 10.005c-0.19 0.119-19.23 11.844-23.486 14.276-4.756 2.717-15.788 5.299-25.437 2.544-5.975-1.707-8.425-5.015-9.428-7.489-1.214-2.997-0.943-6.518 0.728-9.416 2.405-4.181 7.613-6.503 14.014-6.503 1.967 0 4.046 0.219 6.191 0.671 1.283 0.268 2.502 0.682 3.628 1.227 3.81 1.846 6.124 5.004 5.894 8.047-0.012 0.174-0.041 0.369-0.079 0.571-0.526-0.395-1.149-0.693-1.862-0.873 0.067-2.169-1.83-4.56-4.798-5.998-0.983-0.477-2.054-0.837-3.182-1.075-8.293-1.743-15.406 0.177-18.126 4.901-1.373 2.385-1.602 5.271-0.61 7.718 0.84 2.074 2.939 4.859 8.162 6.351 9.108 2.604 19.482 0.184 23.939-2.362 4.232-2.418 23.243-14.125 23.433-14.244 0.454-0.28 1.053-0.138 1.336 0.317 0.28 0.456 0.139 1.055-0.318 1.336z"></path>
<path d="M360.277 10.005c-0.192 0.119-19.23 11.844-23.488 14.276-4.756 2.717-15.788 5.299-25.435 2.544-5.975-1.707-8.425-5.015-9.428-7.489-1.214-2.997-0.945-6.518 0.727-9.416 2.405-4.181 7.613-6.503 14.014-6.503 1.967 0 4.047 0.219 6.193 0.671 1.282 0.268 2.502 0.682 3.628 1.227 3.81 1.846 6.123 5.004 5.894 8.047-0.014 0.174-0.043 0.369-0.081 0.571-0.524-0.395-1.149-0.693-1.862-0.873 0.067-2.169-1.83-4.56-4.798-5.998-0.981-0.477-2.053-0.837-3.18-1.075-8.293-1.743-15.407 0.177-18.126 4.901-1.374 2.385-1.603 5.271-0.611 7.718 0.841 2.074 2.939 4.859 8.162 6.351 9.108 2.604 19.482 0.184 23.941-2.362 4.23-2.418 23.241-14.125 23.433-14.244 0.453-0.28 1.051-0.138 1.335 0.317 0.28 0.456 0.14 1.055-0.317 1.336z"></path>
<path d="M431.106 18.946l3.582-3.581-3.582-3.581-3.581 3.581 3.581 3.581z"></path>
<path d="M437.437 18.946l3.582-3.581-3.582-3.581-3.581 3.581 3.581 3.581z"></path>
<path d="M226.664 0.696l-12.989 12.989c-0.928 0.928-0.928 2.433 0 3.361l12.989 12.989c0.928 0.928 2.432 0.928 3.36 0l12.989-12.989c0.928-0.928 0.928-2.433 0-3.361l-12.989-12.989c-0.928-0.928-2.432-0.928-3.36 0z"></path>
</symbol>
</defs>
</svg>
